<svg class="main-svg" xmlns="http://www.w3.org/2000/svg" xmlns:xlink="http://www.w3.org/1999/xlink" width="700" height="500" style="" viewBox="0 0 700 500"><rect x="0" y="0" width="700" height="500" style="fill: rgb(17, 17, 17); fill-opacity: 1;"/><defs id="defs-b31d34"><g class="clips"><clipPath id="clipb31d34geo"><rect x="80.00000000000003" y="80.69033285589012" width="483" height="318.61933428821976"/></clipPath></g><g class="gradients"/><g class="patterns"/></defs><g class="bglayer"/><g class="layer-below"><g class="imagelayer"/><g class="shapelayer"/></g><g class="cartesianlayer"/><g class="polarlayer"/><g class="smithlayer"/><g class="ternarylayer"/><g class="geolayer"><g class="geo geo" clip-path="url(#clipb31d34geo)"><g class="layer bg"><rect x="80.00000000000003" y="80.69033285589012" width="483" height="318.61933428821976" style="pointer-events: all; fill: rgb(17, 17, 17); fill-opacity: 1;"/></g><g class="layer land"><path d="M381.02040663861675,380.6265906027655L380.42112762153147,382.56283844997483L372.8368031589906,383.0909853431032L372.85357211864573,382.0347250127067L366.41020331989864,380.74392561166155L367.28630344888245,377.9870310415184L370.2387941731722,380.21593197965376L374.3056832959325,379.80529520911176L378.2571104894831,380.2745961660072L378.15281656622665,381.44797226527993ZM320.2566563574199,362.1143796565832L324.1969191332106,361.58805775140905L322.3234273852551,366.67823810687037L323.12531830594725,368.6688847564216L322.04289009994824,372.0663319715863L318.0353838973938,369.605910527647L315.3511758658636,368.90312643473305L308.0756401398495,365.56614477854885L308.8544916831349,362.23134814466425L314.9519419078195,362.81623415220804ZM289.11479549656997,344.25762644629333L291.70622839803326,342.27909338984534L294.72364566469105,346.81989605924934L293.82116568215025,355.3938667237679L291.4934785047706,354.9851387762296L289.2995682134907,357.14602508625103L287.3731389250679,355.4522598384928L287.36597851461397,347.6355788730209L286.295191961965,343.9083830950394ZM289.5576693251119,333.1021710946819L292.87520132956735,330.6679554289433L293.63415705013483,336.1771542055796L291.82205338222633,341.17399392515443L289.5393506019264,339.83678512538904L288.4419791771459,335.4806237997302ZM214.18751085846858,254.3690652627705L218.1991605893806,254.0941787006641L222.87839316358645,257.8941276771106L219.84044511441357,262.0955806481689L220.18625220871883,266.53580509244824L215.94536332525496,272.0548260897584L206.9292920176738,275.74857483906123L200.1728048803219,274.7960766559185L204.88067391686462,268.3168419712131L203.14515914517813,262.0401912884027L210.24185989193717,257.2322637447296ZM309.0660402370203,248.3935712135247L310.5583510724357,251.4590681379317L307.6241071306158,256.40552506917624L302.72081933117863,252.94046848003518L302.0923520239573,250.41791954944176ZM232.62552872078933,257.5079894041637L226.9366042435858,256.46062048295215L225.95274575458515,254.80903812187347L227.99529342579217,252.06233695113707L226.5980162719336,250.36315256694007L223.7225274419306,253.26996561978058L224.11490478532127,247.4102698583166L222.0956141217763,244.30310159157665L224.50807137836227,238.0654030271803L228.67030038156076,233.21341397150206L232.33285330596854,233.69742216569819L237.9804074267202,233.21341397150206L232.31403455448165,239.688564316986L237.1929905362298,238.87662212529847L242.27957649739466,238.87662212529847L240.58855895014932,243.8134229103149L235.8273950633752,249.21374900110425L240.68531094176421,249.5967341665421L244.61179307560246,257.4528384407911L247.79559387312347,258.44600077175426L250.2278327387982,265.47964131275586L251.39570948338218,267.8713213534757L257.1761268480218,269.09691976516456L256.30409217040614,273.06108876384747L253.73750663763053,274.85208540910725L255.44860408217596,278.104960426084L250.83644609751997,281.3662664288609L244.32666999522556,281.30996689610106L235.82494892930225,283.0000078259892L233.6769401844979,281.81675030383843L230.16192374379364,284.7486533305693L225.6808797278062,284.0150717892186L222.01514906913098,286.3865395189415L219.52599014542545,285.14382435995145L227.32279779470434,278.6104784015076L231.8315550588872,277.2628820387091L224.2629710877506,276.1970652368475L223.14843665717575,273.73240110924223L228.40026470341235,271.7754597699957L226.06923378299365,268.42824922937456L227.37639812272351,264.4244753542439L234.4642239837019,264.9797010226206L235.53004397350523,261.37574001365226L232.65776196703754,257.61830007117675ZM192.93193534746575,187.79949918481486L191.1888622773929,191.45869070122495L195.43789602651512,195.29100586220994L188.88085356278899,199.65943172184814L175.24537307696693,203.58764883434833L171.1596977384962,204.6767607796603L165.4852119762701,203.7949762447392L153.47288303540404,201.98282069680437L158.43419457989918,199.45326501694063L149.5165637738178,196.67574560370775L157.5789575161022,195.5472361209802L157.8312171300735,193.85782709922802L148.90019965614562,192.58066450019368L152.81406685468787,188.86474046126153L159.65346805095902,188.05297626790178L165.53956277049585,191.86647170337062L172.89742765004053,188.81397677758855L178.05266901228006,190.3894076226174L185.80083538288267,187.39413358415476ZM502.7316556251708,142.73908554496865L497.45733871803793,145.1589683088011L493.1122031283189,150.28340519294306L488.29315025548715,155.3771690037516L490.4973689140081,159.8031710270098L499.8179680977937,164.22052465501787L497.5141846645005,164.70825038383595L483.59851900527826,163.9768300334576L481.7957841949614,161.59462814512585L473.8524864062317,160.14160278208578L472.46523060396476,157.24835973148953L476.3512200895554,156.09596289203375L475.4217480591394,153.22763490244267L482.1825886569793,148.72482418811336L478.24109581093603,148.0654487737279L486.500755688868,143.52835814220015L484.6258003240474,141.1660647057024L492.63448843007717,138.5003187319856L500.3493163183608,136.40270972028952ZM448.51793492414544,327.8888962922651L441.5076776909743,322.45604624666254L435.54644782742764,320.0905396148814L430.8412999860691,316.2882343194771L434.4288847796089,315.3100055308923L438.0873072703689,309.96726317179645L435.045874273074,307.4448665950144L439.6500997954647,305.7271019246155L442.12049753954943,304.8116550951657L441.84316455799524,303.43940499962525L437.49976824427966,304.46848854187454L433.54855601831605,304.98326422187284L430.41201146624064,307.0439043097048L429.336018547752,307.1011790574905L425.75704623836475,307.3875806963305L423.9937683378608,308.3616922304733L421.6288860230582,309.73780897660566L421.8796137671744,311.11496376771765L422.18722563977514,313.18260317647196L422.2753131108938,313.6998646153015L424.85265016242136,315.25247769161325L429.9427556596496,314.84982987882233L429.55000996402964,316.05801957398666L429.19123287656987,317.15177479206056L423.7386408988913,318.24612054175213L417.15235615071384,321.93656698708L414.27768766682226,320.6672523648275L414.5242469626822,319.6869340642311L415.1470498777784,317.6700760211865L409.5126484277532,315.7702885065653L410.2875022687512,314.56227488935366L414.9749286707372,312.4356946302098L413.36775392539175,310.94276326211525L405.48066128605626,309.33633356799197L404.95385263067016,306.9866314249354L400.36736387897116,307.7886208747368L398.7452662908736,311.2871802133379L395.14123750167937,316.00047003493455L395.3768646330157,317.6700760211865L392.9984531870994,318.9952191422752L391.41935313599856,318.41896537986395L390.4264739730489,326.1536139997827L387.9075599232795,328.8148976418005L386.2982180976526,333.45010396634234L386.60491067706005,334.08810057620593L388.08648246473444,337.1061354832902L383.6648954976676,336.2352063980566L378.5396568056476,338.267795643335L381.1047467423959,339.953040206174L379.65408572654997,344.0247932840689L378.4765935118881,344.7233436497554L375.3162702550114,344.54869177446574L373.4929175482721,344.14120773755684L372.60583462111583,343.966587655921L371.963032323936,344.14120773755684L366.44714682543895,345.654979517098L370.14113901253074,349.2675267888682L367.52199422265994,350.31703687820976L364.6354351515371,350.31703687820976L361.8435606359575,346.99466865257756L360.9058405076997,348.39317340884736L362.17555546757103,352.30027433188087L362.9939325651643,353.2339279390391L364.8268057211236,355.335474458897L363.0867213904086,356.62029896786635L362.902869959709,356.73712122784696L363.47993787821406,357.321281890366L365.889067182921,359.77563452920447L368.5219479867817,361.6465350170362L368.72522948822973,365.3320505730866L363.8362458274246,363.57669327002964L365.47739010463386,366.9123933224674L362.15229142543785,367.55637361385436L364.27820016307555,373.29692239409314L363.6182759030168,373.3555280375945L360.83223806537484,373.41413422866697L356.47369815246066,370.6016704244255L354.38726034707935,365.39057311247376L353.35986393378835,361.06179577673515L351.2865418831117,358.0808124402393L348.55276947854685,354.3429370167708L348.1938561524827,352.53366614166134L347.29988874010223,352.0668970327546L347.18146738757866,350.60862202688145L344.26097565278843,348.45145680945865L343.7486357771744,345.36381465291913L344.14217386458483,340.9413927966438L344.80307547275305,338.96501930560277L343.9085702319061,337.9192475150454L342.8398175870503,337.45458331736177L342.1329227907684,336.4674273951614L341.3791974398598,335.36455269659734L340.821426922139,335.01636923367107L339.1505235428787,334.0300945169297L334.29532766555025,331.652953408589L331.337790715367,329.335929024128L326.652200271122,327.42602972915L322.38982272561253,322.7446990409684L322.98270272760186,322.45604624666254L323.39295460666295,322.22515133609187L322.4342676722842,321.12873479115433L321.11309831192807,319.5716323891464L321.0677392551931,319.1104890737871L321.02289910793303,317.38211459128865L317.75430875013484,316.4033516278028L316.42802387701363,318.76469842759684L316.19911823473626,319.1104890737871L314.7091971977672,316.9790371142361L314.8572575249002,314.79231550132187L315.0392356256248,314.6772918131553L315.31213944247617,314.5047689673096L316.1298886381944,314.1022750439005L312.14901637300943,313.18260317647196L310.5563640683367,314.04478271757637L308.0488864570257,315.4250662389558L308.2873945498275,318.5918246866597L307.72391448343797,320.2058696409337L307.6302979721704,320.43654849932983L309.2846515723121,323.6686412422282L313.60450245790764,326.6740643526461L314.01511518125517,326.9054127646178L314.0147838060789,326.96325342455697L316.5589149454364,332.23254256135647L322.2151722650795,337.45458331736177L326.2291660594655,337.3965056744966L327.48116209438035,338.8488036284502L327.0668765425833,339.1974646641079L326.05354703549006,340.12743143220666L327.0261863839546,340.59252495883203L330.6915957745217,342.453619312091L333.9477025070986,344.14120773755684L334.460298120101,344.43226246785844L338.9518031570174,347.7521209896671L339.4780694752617,348.9760513719439L338.5281129205978,351.3085218688305L335.65707688213877,348.27660955151475L331.14033492664385,347.2277128826631L330.3139032238893,348.85946798561156L328.97804790642425,351.4251848507399L332.3483262888876,353.58410699038L332.77000844048064,353.81757736701496L332.1871151305845,357.20444320419676L329.99082725545935,357.5549690344786L328.786327523796,360.06791150837034L327.2513612243374,363.16720032196383L326.3128959813171,363.34269304290495L325.092725503094,363.635195093851L325.0925932399312,363.57669327002964L325.08820849973944,361.6465350170362L326.15669356508266,358.1976753729486L327.2746465365275,356.79553359663436L326.42808874713194,355.27708304494416L325.2081315792563,353.05885040768123L323.61760928240085,349.79224318917886L323.0588722335806,349.55902631025936L321.47674247157147,348.9760513719439L319.9911590840581,346.17914132090505L316.65241289671314,345.01445113978014L314.43873630058937,342.3954429057684L310.6449818226782,341.98823888522435L306.83208877784074,339.1974646641079L306.64853504276977,339.0812396539824L306.6029623304627,339.02312889648186L301.99683175253654,334.8422943506619L298.6059813019337,331.1314359893994L297.1170294421374,324.76631824558126L294.6177803147206,324.0729863586807L293.03821666538,323.2066220771565L290.55834391024587,321.93656698708L289.3154014722492,322.39832023814506L288.1643661622271,322.8024341413057L286.66334584912124,324.30407336616884L285.16078009800253,325.7488997509486L283.0414211354094,326.26925960130734L278.3022194014882,329.8570713161829L268.32406331867526,328.1203632212487L260.80534662276,330.20456068172535L260.07723344041244,334.08810057620593L260.1847862130074,337.8611603155957L255.08872608148175,342.1627482773081L248.44595969818,343.5009811491691L247.8690997699134,345.7132155965871L247.5263282687209,346.06265372435956L244.52557197873546,349.2675267888682L242.24345484110387,354.5764528371269L244.06491241350392,358.2561080388543L243.62013432809542,358.7235980181558L240.91830699878685,361.1787376652788L239.9145076228594,364.2787614567226L239.57569527550282,365.39057311247376L236.65838523985911,366.32702492145177L235.55770747608793,366.67823810687037L231.61168289909466,371.7147803100248L224.95338093838,371.77337082637865L223.77339292736048,371.77337082637865L219.95739406911494,371.6561903667051L217.3463437656231,373.41413422866697L216.5101940502608,373.9416144404894L214.36959818723113,376.4037551041115L211.80047740187916,375.87607685023477L210.05101379510984,373.7071733660693L210.00375961397566,373.7071733660693L208.7933924686128,369.95733542190794L207.49356665423443,369.6644798327854L203.96558005667902,368.90312643473305L201.7215691730631,370.6016704244255L199.05126418445633,369.72304974340045L196.26363198251414,370.4259355576828L197.03233901776605,367.146558939702L197.4544370286768,365.3320505730866L197.35477220963145,362.99171401609004L197.2960566347993,361.3541560978035L195.0031901621631,360.7109881194991L193.98601019679143,358.2561080388543L194.71027515323422,354.0510618037445L196.65392772935826,352.0085549834361L197.0094297708859,351.6585218854635L197.60222820005635,349.0343445202906L198.82267915283066,345.5967444716394L199.00152804933617,345.1309014699783L199.0970453154618,342.3954429057684L198.2768566182873,340.12743143220666L198.241324810906,337.9192475150454L198.9298632117551,333.33412120141213L197.07214354577255,330.55209867249397L204.73694854183896,325.92234006035574L209.37399764704332,326.7897357105743L210.86008620964034,327.07893900402064L214.2071526249403,327.0210955047745L217.68667317134714,327.0210955047745L223.0065265863787,328.1203632212487L225.68106009238952,327.8888962922651L227.2470289279318,327.7731712246767L228.93789843246333,327.8310330576909L235.4775703609941,328.0046269611103L238.33725179439142,324.1307558891061L238.34471700042252,324.01521831132175L240.13265461750848,311.40200001541166L239.80601031757647,310.8853666418415L235.46658442835604,304.69725857615947L232.02821748828745,301.49730564543086L224.6151671529581,299.04441961459105L224.60467666337775,298.6454675834805L224.524224988603,294.4342136430855L231.0524699338501,293.0709024307456L232.93390789051864,293.4684060287763L239.2064761585461,294.7183931229985L238.19699353617233,287.5738184820802L242.6463389181122,290.2913905614414L254.45266876146232,285.36968820000897L255.6932499903395,281.81675030383843L256.2334955299155,280.24074032718823L260.5752139170005,278.9476027409996L264.55247550215563,277.71192008961043L265.55148041133776,277.0945343861679L267.1868531067438,276.02886220536664L271.8990415530918,266.86953660592366L278.60751151451444,264.31346360051117L282.5806057356007,264.47998540842985L283.5837738096498,263.2039605380455L287.61423392276015,262.8713282529943L288.431456612921,264.2024629934345L291.81539687545586,261.15434712842006L290.971951670939,259.2743532376304L290.76970559153455,258.88770786118243L290.75811030044844,257.94930192261256L290.6721670569915,255.41431020305555L289.10835266642954,252.44642493503994L288.8682073649358,252.00747926792457L288.88834072076827,251.4590681379317L288.97243709856684,245.77365837772777L289.7956458146069,244.13984712753745L291.21311179656857,242.3459160613403L295.3615847866199,241.96582714690874L295.62138306182294,241.74870318670656L297.0543246142601,240.33863695965005L299.5266485686238,239.20131237489795L300.8450781610956,238.60613528872608L300.70997467689455,240.6638457839514L300.64237213312487,241.69443012570918L299.6358871718131,243.10655866091753L299.19775313709914,243.70463996168786L299.7045275081531,245.39218444471976L302.22680287014003,246.2643488441376L301.02794997211817,248.55755161026588L299.64130229944544,247.90179588803534L296.1166405199324,252.28179776523433L297.07559427476133,254.69902711746408L297.317740091565,255.24920053167534L297.34736705343374,255.74460919924974L297.34058066543804,257.61830007117675L302.1637485694343,259.05339571068475L302.09870150126324,260.10335405803676L302.0313135904467,261.265037881769L304.7167351217479,260.60106432969303L306.92210978507796,260.10335405803676L307.53087623071673,259.71640654261785L309.65727968489705,258.39080041035993L315.0135229898331,260.82234322248627L317.28882438824775,262.81589938267996L320.5731950833548,260.9883323512925L328.01085577910106,258.1700279523492L333.9987698629545,256.07501422491407L338.77802186920377,257.12199390505754L339.15010788915544,258.6116192323906L343.7520806741553,258.66683117473116L344.8010540427981,255.96486744830645L351.29508619697566,253.9842448885164L350.10355971258144,248.8855951928798L350.1218629694056,244.30310159157665L352.2703254665181,240.55543008116018L352.3124477464175,240.55543008116018L356.6067036707397,238.49796307171516L360.5546683881623,242.99785755345948L364.30618739578426,242.83482954833846L364.3347257315022,242.56317934350994L364.95431479619714,238.22758887626094L365.3134813578478,234.72009009840542L363.6374027566265,235.47439062052126L360.68956476353287,233.3747204511846L360.60345819639133,233.32094833577804L360.0211236478715,229.88640306584085L365.79094198968966,228.22769022521305L368.2997072673822,227.8535872414526L371.54539638775617,227.37283935086253L376.58958880938377,228.38807036130913L381.3457785304608,228.1742368821047L386.30401611782247,224.91994554201545L381.29321799017544,222.10268166207436L373.0097210125464,222.58041001722472L365.10000536845325,224.76022271521282L364.2797073776022,224.86670120920536L357.6801064950673,225.98554324420024L354.8924529227208,222.73971430403316L350.3709182021257,220.8300951413081L351.1707662912989,215.0754387688803L348.7707892154127,209.7801734453837L349.45513184401136,208.63152820241578L350.780508001127,206.4434449120584L354.6400256854727,202.81068529583143L360.1407961726234,199.3502035634795L364.4744664838159,196.57308010624098L365.7125912639896,196.05997367658068L367.33509633576455,195.3934868761741L366.6970904630494,192.98910323448712L360.45435342460087,190.33853071578437L358.1964725838836,190.796558268039L353.0101744751607,191.91746117454562L348.9107457931003,195.90611365039513L349.72964169976666,199.40173246482613L342.8074834831084,204.00236133095353L334.3015677044675,208.99681976195234L331.1319093775369,217.1824548457455L334.43319646616766,221.30708368366885L338.739957105828,224.49408584260993L338.8662144677941,224.60053041225956L338.5474749706657,225.1329567647025L334.7653573478063,231.28005108625274L329.99035810132796,232.6759396603531L328.44026400486007,241.91154140102537L328.27844493718237,242.78049319150364L325.6449124395142,248.44822827714518L319.9069002979378,247.8471695621347L317.24981930601524,252.66596985917926L311.7365351926606,252.94046848003518L310.3142461547261,247.19189403283406L306.4872811799892,240.33863695965005L304.44438612421345,235.2588108918327L303.098260020078,231.8703465704216L301.883277419782,230.4221556353856L300.1117277792178,228.22769022521305L296.62940476708206,230.79738031492536L290.72226350499494,235.097160357051L287.68045944717767,235.7978580108836L284.4658896669661,236.49910593838547L280.7816953681482,234.72009009840542L278.1706865586587,233.48227454507105L276.9021027923654,227.05249200153452L276.2644434753085,213.49884299014246L280.6241845390362,209.7801734453837L292.68586358234586,204.88439061454756L301.70123187460155,198.9896035228802L309.9331067168893,191.05114953936084L315.4243386523372,185.42147448080357L320.4730876962072,180.18977046338279L327.6396999787795,176.0450439313297L333.2720454151535,172.54115802522955L339.1758231220827,169.11761446144294L348.3529558682821,166.7615494060331L355.3058738910166,167.05551127930016L358.0583407531533,165.00110037403044L361.4026763621122,162.5656307350834L369.05703830936403,162.76005154740199L376.4438208758042,161.6916454440729L389.9931564640821,165.68503953870663L384.73726335598474,167.10452019707714L389.7224921615276,170.54585871008885L393.87444648170504,168.62594794505367L396.90134347876244,170.003690467161L401.2421523273158,171.97765436653816L413.0995748414362,173.2643180772696L421.83289637867045,176.33502427444557L430.25893696930143,179.53878383020054L434.0625768595715,182.19697842069036L434.9858679447372,185.87618677197747L430.67744817263826,188.86474046126153L424.14339693274997,190.28765757223658L423.7576382217289,190.33853071578437L418.718147222191,189.2709861302364L403.69302578839023,186.0783808369382L401.4087968481788,186.5841339913024L400.6115238565732,186.78654230572027L403.3412030867828,188.25582629802346L408.24152097554696,190.89838351134807L408.2481986901986,190.9493017663293L409.89967658775,199.40173246482613L415.83730137513965,201.104230953627L419.5277882599201,202.60363230635278L419.6940984515727,199.81409505611532L416.72289062501034,197.39481614560827L419.197165082048,195.23977090186168L430.4303620291279,198.7836267606545L433.9095581620918,197.39481614560827L430.2868920344379,193.1934120697765L439.53074455906983,187.64745854928492L443.59627112759415,188.00227325265507L448.0578586954487,189.98249778108453L449.8447128834654,186.0783808369382L448.73636756378596,185.21947997256456L445.561063113268,182.75005821531823L446.7626270265671,179.9893957425952L447.0007550850472,179.4386913880001L446.47476464473164,178.93846714743876L443.18707006637266,175.99527602754256L455.49764647279255,177.73955301699L457.5164087958333,179.73901623401548L458.65873524161066,180.8915786969152L453.3250269778206,181.543947619831L454.01199145718147,184.66431247717196L457.81270390584496,186.5841339913024L461.4279882475257,185.92672953990666L464.27660749895483,185.3709700891007L464.39035245709846,183.6057436546438L464.52746581579373,181.7950351103009L472.89894678071516,179.13850921197684L486.6357076746724,174.40484929852045L489.9291279536421,174.65307821012317L487.6175497244095,177.0412504906056L486.61129652369493,178.0390659895882L487.1266618682889,178.08899881432774L492.09142656812776,178.58854661201627L494.6523601608467,176.69239464164178L502.62345536078965,176.5429454374871L508.2804871285552,174.255961090389L514.1606639329169,177.5898505716113L514.1992539507303,177.5898505716113L514.3685588995853,177.39030343027736L521.2771495496762,200.42017561520402L527.8681367589411,224.20143330235118L534.0948170777758,248.68055502449022L539.9038895133566,273.7883607197416L539.7537428366118,273.9002877303226L539.9531077787422,274.0122251192827L541.4490095532028,280.91593849154253L541.1290431261846,280.8596584947004L540.0697338064913,282.71818337451316L533.1517547744302,279.5096755856451L525.4418061609722,279.62211990999106L520.7682495174236,282.267389493774L514.5222659575209,279.734574130371L502.97949396499587,275.41231436269743L495.3950737860781,275.58043308271425L486.46983312618704,282.3800734861085L486.57051479001655,286.951783172457L480.968845585101,283.28189230621183L478.0672366399275,290.23472133887384L479.71396855672685,291.4819598715592L477.5007544676838,296.25388341133646L482.357735074527,300.58416885549406L486.0066793224346,300.4130128104773L489.80428927313335,304.64006319018034L489.7772000601766,307.90322041789216L492.4505469295558,308.9349469091427L490.72722982709615,312.7229324751055L485.9783195549692,313.7573466907021L481.80274748364343,320.3788764371302L487.1845100518849,326.4427387651651L487.2260513931253,330.78381754871424L493.787580386524,338.38398782193343L491.01108338620975,340.9995413901285L490.3266234020878,342.62815511055146L488.0027163805862,342.1627482773081L484.0318589917299,338.267795643335L482.57366866510085,338.03542548036626L479.176517018592,336.58354521321183L477.3037411068401,333.9140862091339L472.368513558245,332.58035889909746L469.39615611182865,333.5660918593187L468.3433301491201,332.3484761230251L461.0804459175838,329.27803115476894L453.4548356482393,328.23610506272075L449.0860780071768,327.13678392104606ZM359.3619592189005,127.29928191139317L350.81204763341947,129.3213154171787L343.8504966570722,128.17606340531142L346.4431403852459,126.90594399673432L344.01364490350994,125.3836541633097L351.96333750195436,124.43294820113147L353.670206483459,126.2085722562054ZM322.0312132487645,118.6707710350812L323.4960699284422,117.09931872444315L329.05422004646,116.93496289389554L333.88498424868556,118.54605799311628L346.6589569437856,122.03550539004448L337.05068288212436,123.91644618035156L335.0126248130041,127.43056315690882L331.6348151349177,128.35186002648192L329.85133337169657,132.43381731832545L325.1012199439263,132.65769941684596L316.6551705369088,129.63067964324887L320.2191176453407,127.91264206913712L314.3834238140544,126.46980002335039L306.97648488020786,122.46117592920785L304.13533255600834,118.79559362519558L314.55559197928267,117.1404397673108L316.61514170924835,118.75397395053977ZM368.51350940878126,116.93496289389554L363.1747123618396,119.42133436216812L352.1616962058222,119.96580719596324L340.83878039164324,119.17071426357671L340.122220212682,117.92415166608748L334.64707109970834,117.84144161438246L330.45580926751074,115.74962040084131L342.0368926590469,114.49501374686577L347.570123863493,115.54637837488985L351.2556941992848,114.21355633024001L360.8957754229269,115.34347388065453ZM433.76721782534196,114.49501374686577L440.823511416031,113.69269168954509L446.5167754453521,113.65272532772877L447.7539943842382,114.85789419992756L449.5022745900411,113.77266755230636L452.7247630478596,113.0549699037337L458.6916977818605,114.0129388231299L457.5186871527958,114.69647495966882L452.70731896915845,115.30293369025844L449.43555218727,115.62763481128582L449.2142007529852,116.40223629417522L445.04903802951907,117.1404397673108L440.5539992989469,116.07550394687416L442.22335594105533,114.65615484534823Z" style="stroke: none; fill: rgb(17, 17, 17); fill-opacity: 1;"/></g><g class="layer lakes"><path d="M388.9849313060369,217.8684329160613L393.3012774386886,214.6547052195379L401.2921847185795,218.50216325820168L403.4787826877751,221.30708368366885L402.99881033640514,222.20881958799367L401.98289648176865,221.94350043053305L402.1001554490005,223.8557037305585L398.0409738577356,223.69618469920078L397.3561799908554,225.5591417639962L395.4903926980542,225.50585679392873L395.3690741573627,224.22803383298935L392.46272208672474,221.36009956478352L392.2214381820735,220.08866605392973ZM316.7816400458026,229.77929251052495L316.81881879948605,230.52934607120017L316.47922836886914,231.60198078126461L313.5451655967469,233.3747204511846L311.4081804742689,233.96643057064824L309.69486949888596,233.96643057064824L310.0936756598911,232.3536132797813L310.01944334851447,231.70931717030635L310.8585594902214,231.28005108625274L312.36038315030385,231.06549756991762L313.15988916900193,230.26139492136582L315.0001895260414,229.02989220195548ZM414.93865113382583,211.71585308915627L416.9019580964331,214.97023441023197L418.74624751733757,217.55175481060792L417.672789622725,219.08352029292416L414.23927104531197,219.50658785849845L411.94479987998164,218.50216325820168L413.50172055741734,218.50216325820168L415.2012154494717,218.6606737023207L413.05651866971175,216.866047429876L411.5993678441271,215.97023958833114L409.665524710135,214.12910310364413L408.43956252458133,212.03020270421314L408.5115311233736,211.61109809175542L410.22033550679055,211.97780228981736L409.90550255000215,210.72125074508648L410.94712331716994,211.61109809175542L412.1533830280516,212.50196493211268L412.7645008135655,212.1874250866818L413.8151064813654,211.82062219310325L412.1903915486087,210.51202333308208L409.64211436737753,208.89243297121635L411.3536576792246,208.99681976195234L412.457878831848,209.4145090126483Z" style="stroke: none; fill: rgb(17, 17, 17); fill-opacity: 1;"/></g><g class="layer countries"><path d="M492.4505469295558,308.9349469091427L490.72722982709615,312.7229324751055L485.9783195549692,313.7573466907021L481.80274748364343,320.3788764371302L487.1845100518849,326.4427387651651L487.2260513931253,330.78381754871424L493.787580386524,338.38398782193343L491.01108338620975,340.9995413901285L490.3266234020878,342.62815511055146L488.0027163805862,342.1627482773081L484.0318589917299,338.267795643335L482.57366866510085,338.03542548036626L479.176517018592,336.58354521321183L477.3037411068401,333.9140862091339L472.368513558245,332.58035889909746L469.39615611182865,333.5660918593187L468.3433301491201,332.3484761230251L461.0804459175838,329.27803115476894L453.4548356482393,328.23610506272075L449.0860780071768,327.13678392104606L448.51793492414544,327.8888962922651L441.5076776909743,322.45604624666254L435.54644782742764,320.0905396148814L430.8412999860691,316.2882343194771L434.38352270498365,315.3100055308923L438.0873072703689,309.96726317179645L435.045874273074,307.4448665950144L442.12049753954943,304.8116550951657L441.84316455799524,303.43940499962525L437.49976824427966,304.46848854187454L437.3531346170449,301.6685756267617L439.7256574380211,299.8996535212542L444.50554344659827,299.3864582321028L445.0348380881812,297.27839849044545L443.5805465481805,293.80920802977374L445.2105632693002,290.5180898452054L444.95159097318606,288.64889791114905L437.4614104927781,286.61260912513416L434.5921804991216,286.6691323350398L431.2332536074806,283.73303195184513L427.58640474040897,284.7486533305693L421.1501673876855,282.54911758108636L421.1189520763085,281.30996689610106L419.14492486864617,278.6104784015076L415.20718178627396,278.27344390368785L414.6362918410884,276.3652911882477L415.7413963866744,275.0761461582817L412.31723818681314,271.6078716289682L407.3532914235625,272.16659105397963L405.84648039606225,271.88719839090487L404.7434520206403,273.28481785309725L402.8912086697542,273.06108876384747L401.38396192851053,269.0411823848324L400.08553711355535,266.980802350119L400.95040175101275,266.4245831901777L404.8718430266226,266.64703796832856L406.6175398227926,265.3129696338887L405.0846744537253,263.6476274570487L401.74779271295074,262.53879728237143L401.95471373443013,261.4310953439493L399.92062382739914,260.3245300048138L396.5751389701732,256.29534304318514L397.46575704227433,254.6440260602654L396.75437661151534,251.78807864420008L391.98948690374226,250.36315256694007L389.5732296521155,251.07535993657376L388.7739874971656,249.54201284227673L383.68895298062426,248.06569332860715L381.94955563348833,244.4663842626963L381.3197088660634,241.5316299852168L378.99200037114383,240.17607564170044L380.83225679036104,238.22758887626094L379.05503194487403,232.6759396603531L382.0912227392061,229.24393981355854L381.3457785304608,228.1742368821047L386.30401611782247,224.91994554201545L381.29321799017544,222.10268166207436L390.3615689683362,214.60212925985275L394.2673602810454,211.24456674913313L395.6253426620543,208.26641092541917L388.6251023736585,204.31354702904633L390.06699500757304,200.58790367646998L385.66923963759194,196.31648082013703L388.16393654715307,191.45869070122495L382.47227552942917,185.01754698736204L386.02987467613826,180.84142395432036L379.09235056449785,177.14095981018323L379.3795891227732,173.2643180772696L382.73968587311646,172.7691154282594L389.7224921615276,170.54585871008885L393.87444648170504,168.62594794505367L401.2421523273158,171.97765436653816L413.0995748414362,173.2643180772696L421.83289637867045,176.33502427444557L430.25893696930143,179.53878383020054L434.0625768595715,182.19697842069036L434.9858679447372,185.87618677197747L430.67744817263826,188.86474046126153L423.7576382217289,190.33853071578437L413.82837595141274,188.11519597073112L403.69302578839023,186.0783808369382L400.6115238565732,186.78654230572027L408.24152097554696,190.89838351134807L408.8648093046291,193.55109589102722L409.89967658775,199.40173246482613L415.83730137513965,201.104230953627L419.5277882599201,202.60363230635278L419.6940984515727,199.81409505611532L416.72289062501034,197.39481614560827L419.197165082048,195.23977090186168L430.4303620291279,198.7836267606545L433.9095581620918,197.39481614560827L430.2868920344379,193.1934120697765L439.53074455906983,187.64745854928492L443.59627112759415,188.00227325265507L448.0578586954487,189.98249778108453L449.8447128834654,186.0783808369382L445.561063113268,182.75005821531823L447.0007550850472,179.4386913880001L443.18707006637266,175.99527602754256L455.49764647279255,177.73955301699L458.65873524161066,180.8915786969152L453.3250269778206,181.543947619831L454.01199145718147,184.66431247717196L457.81270390584496,186.5841339913024L464.27660749895483,185.3709700891007L464.52746581579373,181.7950351103009L472.89894678071516,179.13850921197684L486.6357076746724,174.40484929852045L489.9291279536421,174.65307821012317L486.61129652369493,178.0390659895882L492.09142656812776,178.58854661201627L494.6523601608467,176.69239464164178L502.62345536078965,176.5429454374871L508.2804871285552,174.255961090389L514.1606639329169,177.5898505716113L514.3685588995853,177.39030343027736L521.2771495496762,200.42017561520402L527.8681367589411,224.20143330235118L534.0948170777758,248.68055502449022L539.9038895133566,273.7883607197416L539.7537428366118,273.9002877303226L539.9531077787422,274.0122251192827L541.4490095532028,280.91593849154253L541.1290431261846,280.8596584947004L540.0697338064913,282.71818337451316L533.1517547744302,279.5096755856451L525.4418061609722,279.62211990999106L520.7682495174236,282.267389493774L514.5222659575209,279.734574130371L502.97949396499587,275.41231436269743L495.3950737860781,275.58043308271425L486.46983312618704,282.3800734861085L486.57051479001655,286.951783172457L480.968845585101,283.28189230621183L478.0672366399275,290.23472133887384L479.71396855672685,291.4819598715592L477.5007544676838,296.25388341133646L482.357735074527,300.58416885549406L486.0066793224346,300.4130128104773L489.80428927313335,304.64006319018034L489.7772000601766,307.90322041789216ZM433.76721782534196,114.49501374686577L440.823511416031,113.69269168954509L446.5167754453521,113.65272532772877L447.7539943842382,114.85789419992756L449.5022745900411,113.77266755230636L452.7247630478596,113.0549699037337L458.6916977818605,114.0129388231299L457.5186871527958,114.69647495966882L452.70731896915845,115.30293369025844L449.43555218727,115.62763481128582L449.2142007529852,116.40223629417522L445.04903802951907,117.1404397673108L440.5539992989469,116.07550394687416L442.22335594105533,114.65615484534823ZM358.43915361592514,259.2743532376304L349.66490447685925,259.3848492946854L343.7520806741553,258.66683117473116L344.8010540427981,255.96486744830645L351.29508619697566,253.9842448885164L356.29981979628985,255.08411744635515L358.43666242722566,256.0199393664176L358.0334448784994,257.7286223852414ZM478.24109581093603,148.0654487737279L486.500755688868,143.52835814220015L484.6258003240474,141.1660647057024L492.63448843007717,138.5003187319856L500.3493163183608,136.40270972028952L502.7316556251708,142.73908554496865L497.45733871803793,145.1589683088011L493.1122031283189,150.28340519294306L488.29315025548715,155.3771690037516L490.4973689140081,159.8031710270098L499.8179680977937,164.22052465501787L497.5141846645005,164.70825038383595L483.59851900527826,163.9768300334576L481.7957841949614,161.59462814512585L473.8524864062317,160.14160278208578L472.46523060396476,157.24835973148953L476.3512200895554,156.09596289203375L475.4217480591394,153.22763490244267L482.1825886569793,148.72482418811336ZM414.14834796239955,311.6890803793327L415.33434673576613,310.0820010564671L419.01433263806007,311.4594125640684L420.6610949023974,311.6890803793327L421.398513611461,312.9527539876113L422.18722563977514,313.18260317647196L422.2753131108938,313.6998646153015L424.85265016242136,315.25247769161325L429.9427556596496,314.84982987882233L429.19123287656987,317.15177479206056L423.7386408988913,318.24612054175213L417.15235615071384,321.93656698708L414.27768766682226,320.6672523648275L415.1470498777784,317.6700760211865L409.5126484277532,315.7702885065653L410.2875022687512,314.56227488935366L414.9749286707372,312.4356946302098ZM322.0312132487645,118.6707710350812L323.4960699284422,117.09931872444315L329.05422004646,116.93496289389554L333.88498424868556,118.54605799311628L346.6589569437856,122.03550539004448L337.05068288212436,123.91644618035156L335.0126248130041,127.43056315690882L331.6348151349177,128.35186002648192L329.85133337169657,132.43381731832545L325.1012199439263,132.65769941684596L316.6551705369088,129.63067964324887L320.2191176453407,127.91264206913712L314.3834238140544,126.46980002335039L306.97648488020786,122.46117592920785L304.13533255600834,118.79559362519558L314.55559197928267,117.1404397673108L316.61514170924835,118.75397395053977ZM389.7224921615276,170.54585871008885L382.73968587311646,172.7691154282594L379.3795891227732,173.2643180772696L380.7978016041479,169.4128197389162L375.15613057853653,167.25157308932785L368.7774670984948,169.06842853653336L366.99164025392236,173.11571383736998L363.0968614688413,175.54754732338574L358.4385694234876,174.20633988636422L352.88915706585277,174.50412858582843L347.9995270336575,171.58232399569107L345.53480046125503,173.0166650191423L342.9006954816742,173.2643180772696L342.41143700787507,176.89171668136402L334.29802334242254,175.99527602754256L333.2403591685889,179.08849273774763L329.10125395923467,179.08849273774763L326.3075327058219,183.0519366658258L321.99129850021325,189.2709861302364L315.11611822474333,197.24066893820014L316.7333104208742,199.19563876967504L315.15688309314163,201.46587621478028L310.75631589497647,201.36253084561554L307.73032166871144,206.75564267088407L307.86819984819925,214.49698783555863L310.71910874754445,217.4462231843679L309.1343472683946,224.38765485104108L305.2106418126393,228.44153710681678L303.098260020078,231.8703465704216L300.1117277792178,228.22769022521305L290.72226350499494,235.097160357051L284.4658896669661,236.49910593838547L278.1706865586587,233.48227454507105L276.9021027923654,227.05249200153452L276.2644434753085,213.49884299014246L280.6241845390362,209.7801734453837L292.68586358234586,204.88439061454756L301.70123187460155,198.9896035228802L309.9331067168893,191.05114953936084L315.0409761744399,185.57274144352488L320.4730876962072,180.18977046338279L327.6396999787795,176.0450439313297L333.2720454151535,172.54115802522955L339.1758231220827,169.11761446144294L348.3529558682821,166.7615494060331L355.3058738910166,167.05551127930016L361.4026763621122,162.5656307350834L369.05703830936403,162.76005154740199L376.4438208758042,161.6916454440729L389.9931564640821,165.68503953870663L384.73726335598474,167.10452019707714ZM368.51350940878126,116.93496289389554L363.1747123618396,119.42133436216812L352.1616962058222,119.96580719596324L340.83878039164324,119.17071426357671L340.122220212682,117.92415166608748L334.64707109970834,117.84144161438246L330.45580926751074,115.74962040084131L342.0368926590469,114.49501374686577L347.570123863493,115.54637837488985L351.2556941992848,114.21355633024001L360.8957754229269,115.34347388065453ZM359.3619592189005,127.29928191139317L350.81204763341947,129.3213154171787L343.8504966570722,128.17606340531142L346.4431403852459,126.90594399673432L344.01364490350994,125.3836541633097L351.96333750195436,124.43294820113147L353.670206483459,126.2085722562054ZM278.0525366810156,289.55486589477425L280.34089983747253,291.1984019870204L287.4132735847089,292.33296500094326L284.77951159463504,296.6522252343222L284.00527092748655,301.15481940852607L282.5789102244679,302.2396043724124L280.3112621847278,301.6685756267617L280.43357155637483,303.26795212667236L276.6577725699751,306.87209124962595L276.4589340211948,309.73780897660566L278.88697807489376,308.7629513336782L280.50720908616125,311.5168268760813L280.26379004164085,313.3550081810386L281.6363747720586,315.7127472878605L279.846264880862,317.6700760211865L281.0053175860693,322.6292333779702L283.7191340959029,323.43761968404436L283.0414211354094,326.26925960130734L278.3022194014882,329.8570713161829L268.32406331867526,328.1203632212487L260.80534662276,330.20456068172535L260.07723344041244,334.08810057620593L254.09665174633795,334.9583430218131L248.49945757849264,332.0006911397236L246.58386827273307,333.39211194226243L237.3352521502784,330.4941723085968L235.4775703609941,328.0046269611103L238.33725179439142,324.1307558891061L240.13265461750848,311.40200001541166L235.46658442835604,304.69725857615947L232.02821748828745,301.49730564543086L224.6151671529581,299.04441961459105L224.524224988603,294.4342136430855L231.0524699338501,293.0709024307456L239.2064761585461,294.7183931229985L238.19699353617233,287.5738184820802L242.6463389181122,290.2913905614414L254.45266876146232,285.36968820000897L256.2334955299155,280.24074032718823L260.5752139170005,278.9476027409996L261.1487652229876,281.14108292913295L263.4306234773125,281.2536698010838L265.5826499054535,283.78943515384185L268.83290940253073,286.7256578657988L271.37595509552204,286.2735186733229L275.54357398830933,289.1018093571913L276.6283979060294,289.66815262428264ZM289.5576693251119,333.1021710946819L292.87520132956735,330.6679554289433L293.63415705013483,336.1771542055796L291.82205338222633,341.17399392515443L289.5393506019264,339.83678512538904L288.4419791771459,335.4806237997302ZM303.098260020078,231.8703465704216L305.2106418126393,228.44153710681678L309.1343472683946,224.38765485104108L310.71910874754445,217.4462231843679L307.86819984819925,214.49698783555863L307.73032166871144,206.75564267088407L310.75631589497647,201.36253084561554L315.15688309314163,201.46587621478028L316.7333104208742,199.19563876967504L315.11611822474333,197.24066893820014L321.99129850021325,189.2709861302364L326.3075327058219,183.0519366658258L329.10125395923467,179.08849273774763L333.2403591685889,179.08849273774763L334.29802334242254,175.99527602754256L342.41143700787507,176.89171668136402L342.9006954816742,173.2643180772696L345.53480046125503,173.0166650191423L351.33711902667784,175.746497290962L358.2145723667856,179.48873562815868L358.8309772363856,188.10368308085975L360.45435342460087,190.33853071578437L353.0101744751607,191.91746117454562L348.9107457931003,195.90611365039513L349.72964169976666,199.40173246482613L342.8074834831084,204.00236133095353L334.3015677044675,208.99681976195234L331.1319093775369,217.1824548457455L334.43319646616766,221.30708368366885L338.8662144677941,224.60053041225956L334.7653573478063,231.28005108625274L329.99035810132796,232.6759396603531L328.27844493718237,242.78049319150364L325.6449124395142,248.44822827714518L319.9069002979378,247.8471695621347L317.24981930601524,252.66596985917926L311.7365351926606,252.94046848003518L310.3142461547261,247.19189403283406L306.4872811799892,240.33863695965005ZM383.68895298062426,248.06569332860715L388.7739874971656,249.54201284227673L389.5732296521155,251.07535993657376L391.98948690374226,250.36315256694007L396.75437661151534,251.78807864420008L397.46575704227433,254.6440260602654L396.5751389701732,256.29534304318514L399.92062382739914,260.3245300048138L401.95471373443013,261.4310953439493L401.74779271295074,262.53879728237143L405.0846744537253,263.6476274570487L406.6175398227926,265.3129696338887L404.8718430266226,266.64703796832856L400.95040175101275,266.4245831901777L400.08553711355535,266.980802350119L401.38396192851053,269.0411823848324L402.8912086697542,273.06108876384747L398.77035099974955,273.39669804629364L397.3880986443997,274.7400704787073L397.31837331880354,277.88035088376915L395.3035730957475,277.31900297285864L390.9388969246555,277.5996454649701L389.5686911811116,276.1409950114587L387.79967794377205,277.2067636287535L385.9450567398852,276.3092133264208L382.0842961045247,276.1970652368475L376.57098511608,274.6840668786407L371.65129074845635,274.23613099520094L367.8978938898328,274.34809946357075L365.3051620045972,276.02886220536664L362.99622239962025,276.3092133264208L362.79266130161943,273.5085886595509L361.14915460494956,270.6586554976705L364.01074745939036,269.37564703288024L363.9463085217514,266.92516811015145L362.4986514184608,264.53549824606677L362.16472756702956,261.81866216027936L366.7839894190799,261.87404019357865L371.87882015547336,259.5506149743902L372.80595235458645,256.13009202281785L376.58716563358837,254.14915006851135L375.9915898985688,251.40424361550788L378.78202788883743,250.36315256694007ZM402.8912086697542,273.06108876384747L404.7434520206403,273.28481785309725L405.84648039606225,271.88719839090487L407.3532914235625,272.16659105397963L412.31723818681314,271.6078716289682L415.7413963866744,275.0761461582817L414.6362918410884,276.3652911882477L415.20718178627396,278.27344390368785L419.14492486864617,278.6104784015076L421.1189520763085,281.30996689610106L421.1501673876855,282.54911758108636L427.58640474040897,284.7486533305693L431.2332536074806,283.73303195184513L434.5921804991216,286.6691323350398L437.4614104927781,286.61260912513416L444.95159097318606,288.64889791114905L445.2105632693002,290.5180898452054L443.5805465481805,293.80920802977374L445.0348380881812,297.27839849044545L444.50554344659827,299.3864582321028L439.7256574380211,299.8996535212542L437.3531346170449,301.6685756267617L437.49976824427966,304.46848854187454L433.54855601831605,304.98326422187284L430.41201146624064,307.0439043097048L425.75704623836475,307.3875806963305L421.6288860230582,309.73780897660566L422.18722563977514,313.18260317647196L421.398513611461,312.9527539876113L420.6610949023974,311.6890803793327L419.01433263806007,311.4594125640684L415.33434673576613,310.0820010564671L414.14834796239955,311.6890803793327L413.36775392539175,310.94276326211525L405.48066128605626,309.33633356799197L404.95385263067016,306.9866314249354L400.36736387897116,307.7886208747368L398.7452662908736,311.2871802133379L395.14123750167937,316.00047003493455L392.8084796010821,314.90734594355075L390.4631068292141,315.94292215738085L388.17368307961556,314.734802812337L389.40492109150114,314.04478271757637L390.1423895801494,311.86134970626233L391.4276075735476,309.8525324750585L390.99941017718606,308.7056231217945L392.00638625026005,308.1897515159256L392.5538685148426,309.04961972968334L395.50143429397855,309.27898717271324L396.8228587654472,308.7629513336782L395.8358840989026,308.13244161691097L396.13507340007163,307.15845566699727L394.27841451505526,305.555418574451L393.39540440044516,302.9250990244194L391.5370513293973,301.89696338128994L391.7621436644865,299.7285701562192L389.37614528850224,298.01874638380446L387.35131259013536,297.79090969143397L383.5758889792304,295.7987620588441L380.3077472402475,296.4245887191536L379.1524740625839,297.39227531412706L377.09744592862126,297.39227531412706L375.9181752467118,298.8734278827804L372.2756290634018,299.4434718029031L370.6168342755751,300.4130128104773L368.2240312743037,298.8734278827804L365.04796021592597,298.8734278827804L361.93476755054735,298.1326771382806L359.8354039310125,299.5004874087095L359.42173251999515,297.8478657592393L356.63996921219143,296.0831970664601L357.4936611056855,293.525200945686L358.8194861648455,291.9357675522091L359.8983795888022,292.27621591298777L358.55618555200095,289.44158819324525L362.8326990895157,284.24074648935664L365.2294523654754,283.5074430081305L365.68432766138267,281.76043131289515L362.99622239962025,276.3092133264208L365.3051620045972,276.02886220536664L367.8978938898328,274.34809946357075L371.65129074845635,274.23613099520094L376.57098511608,274.6840668786407L382.0842961045247,276.1970652368475L385.9450567398852,276.3092133264208L387.79967794377205,277.2067636287535L389.5686911811116,276.1409950114587L390.9388969246555,277.5996454649701L395.3035730957475,277.31900297285864L397.31837331880354,277.88035088376915L397.3880986443997,274.7400704787073L398.77035099974955,273.39669804629364ZM362.16472756702956,261.81866216027936L362.4986514184608,264.53549824606677L363.9463085217514,266.92516811015145L364.01074745939036,269.37564703288024L361.14915460494956,270.6586554976705L362.79266130161943,273.5085886595509L362.99622239962025,276.3092133264208L365.68432766138267,281.76043131289515L365.2294523654754,283.5074430081305L362.8326990895157,284.24074648935664L358.55618555200095,289.44158819324525L359.8983795888022,292.27621591298777L358.8194861648455,291.9357675522091L354.07833797915066,289.4982259148831L350.55439629023317,290.40473572714876L348.1848130000374,289.7247993713818L345.3311378885228,291.08499436709707L342.7999543293319,288.8753354575205L340.7760619260454,289.7247993713818L340.50287601087643,289.32831952976335L338.14816504801115,286.2170117442359L334.5180941565913,285.8780191601187L334.0083076541978,283.9022487085122L330.64868085288833,283.16913132047455L329.9564572334788,284.8050992555926L327.2556162720066,283.5074430081305L327.5541555091581,281.76043131289515L323.89846989047857,281.2536698010838L321.5658827801136,279.22860813306227L319.5969181268898,275.24421871067676L319.99388284783265,273.1170171211315L318.780829699259,269.7659780288705L317.05056498307806,267.5929592344853L318.4016483948838,265.92422066245103L317.28882438824775,262.81589938267996L320.5731950833548,260.9883323512925L328.01085577910106,258.1700279523492L333.9987698629545,256.07501422491407L338.77802186920377,257.12199390505754L339.15010788915544,258.6116192323906L343.7520806741553,258.66683117473116L349.66490447685925,259.3848492946854L358.43915361592514,259.2743532376304L360.919996735634,259.93750219037827ZM331.3110364180928,297.9617841067103L330.97539645404885,300.58416885549406L328.15293793582157,300.58416885549406L329.1477180690894,301.95406527191807L327.5093946141762,306.0705196957238L326.56854066706586,307.1011790574905L322.1984340882779,307.273014465993L319.6728490021577,308.7056231217945L315.52459352059276,308.2470632520541L308.3725999384465,306.5857735048011L307.2739536701378,304.35411504731036L302.3108353737052,305.49819458271753L301.70564484629665,306.7002949916638L298.70588342109573,305.7843334953414L296.1444238563692,305.6126444628752L293.92167881501047,304.46848854187454L294.72159929761756,302.9250990244194L294.56880547174177,301.78276553984443L296.05640013799143,301.4402196270335L298.5766820354555,303.2108050642388L299.28337848431295,301.49730564543086L303.67293950877166,301.78276553984443L307.27499266576444,300.6412248906437L309.64718807333674,300.86946909754414L311.2043207010365,302.1253828079141L311.66225881007415,301.0406732861903L310.98343029012926,296.9368180740486L312.7759172904289,296.1400904056227L314.5790767333918,293.2412480699555L318.222620150753,295.28691253896807L321.0329129835084,292.67350558009963L322.7672807261825,292.21946902134334L326.600328772374,294.1500878614369L328.9143392304476,293.80920802977374L331.1958798728624,295.0026261415399L330.8013459232264,295.7987620588441ZM356.63996921219143,296.0831970664601L359.42173251999515,297.8478657592393L359.8354039310125,299.5004874087095L356.8343750630396,300.86946909754414L354.6269964420513,305.154890535342L351.72330676310077,309.4510317909135L347.6867866078215,310.65579793653296L344.5632550328346,310.3688771474193L340.75066889928144,312.0910666964747L338.86364938134693,313.01021369339486L334.73027614933767,311.8039248412532L330.9542937147409,309.04961972968334L329.3244001824691,308.2470632520541L328.364999549722,306.1277625960849L327.5093946141762,306.0705196957238L329.1477180690894,301.95406527191807L328.15293793582157,300.58416885549406L330.97539645404885,300.58416885549406L331.3110364180928,297.9617841067103L333.8768897676782,299.6145247201855L335.7207305714817,300.2989188437312L339.8732437988099,299.5004874087095L340.2552271062194,298.2466161512332L342.2192541801656,298.07571072808986L344.61318897702597,297.10759888737L345.15756459657325,297.5061604631259L347.50702131484684,296.7091396113645L348.6317457693929,295.23005099684264L350.22658055325445,294.83207991472284L355.5899105140062,296.76605608514143ZM379.1524740625839,297.39227531412706L380.3077472402475,296.4245887191536L383.5758889792304,295.7987620588441L387.35131259013536,297.79090969143397L389.37614528850224,298.01874638380446L391.7621436644865,299.7285701562192L391.5370513293973,301.89696338128994L393.39540440044516,302.9250990244194L394.27841451505526,305.555418574451L396.13507340007163,307.15845566699727L395.8358840989026,308.13244161691097L396.8228587654472,308.7629513336782L395.50143429397855,309.27898717271324L392.5538685148426,309.04961972968334L392.00638625026005,308.1897515159256L390.99941017718606,308.7056231217945L391.4276075735476,309.8525324750585L390.1423895801494,311.86134970626233L389.40492109150114,314.04478271757637L388.17368307961556,314.734802812337L387.11172064975733,311.86134970626233L387.50272396106607,309.1069588671391L387.16602147399465,306.29950259442484L384.0809149787844,302.5251927666676L382.3671480804744,299.84262370649697L380.7044480965566,298.01874638380446ZM388.17368307961556,314.734802812337L390.4631068292141,315.94292215738085L392.8084796010821,314.90734594355075L395.14123750167937,316.00047003493455L395.3768646330157,317.6700760211865L392.9984531870994,318.9952191422752L391.41935313599856,318.41896537986395L390.4264739730489,326.1536139997827L387.3715994069146,325.45986151690045L383.60186165757096,323.1488764273052L377.68777770398594,324.6507481928746L375.24134548062074,326.26925960130734L367.7706470322938,325.92234006035574L363.80453007238674,324.93968433108006L361.85341495716807,325.4020582236336L360.3117133183105,322.8024341413057L359.3647247112399,321.6480208851886L360.51636990691543,320.55189731128604L359.21844970267813,319.8022420573899L357.6646410158133,321.18642707231726L354.69917452202117,319.3410480340415L354.21998010264804,316.69117379496913L351.0959830882063,315.1949515305518L350.50389836846233,313.18260317647196L347.6867866078215,310.65579793653296L351.72330676310077,309.4510317909135L354.6269964420513,305.154890535342L356.8343750630396,300.86946909754414L359.8354039310125,299.5004874087095L361.93476755054735,298.1326771382806L365.04796021592597,298.8734278827804L368.2240312743037,298.8734278827804L370.6168342755751,300.4130128104773L372.2756290634018,299.4434718029031L375.9181752467118,298.8734278827804L377.09744592862126,297.39227531412706L379.1524740625839,297.39227531412706L380.7044480965566,298.01874638380446L382.3671480804744,299.84262370649697L384.0809149787844,302.5251927666676L387.16602147399465,306.29950259442484L387.50272396106607,309.1069588671391L387.11172064975733,311.86134970626233ZM375.9915898985688,251.40424361550788L376.58716563358837,254.14915006851135L372.80595235458645,256.13009202281785L371.87882015547336,259.5506149743902L366.7839894190799,261.87404019357865L362.16472756702956,261.81866216027936L360.919996735634,259.93750219037827L358.43915361592514,259.2743532376304L358.0334448784994,257.7286223852414L358.43666242722566,256.0199393664176L356.29981979628985,255.08411744635515L351.29508619697566,253.9842448885164L350.10355971258144,248.8855951928798L355.4753610458397,247.02814459599142L363.3881170391457,247.4102698583166L367.98425256020516,246.80985530108285L368.73130935289646,248.06569332860715L371.26020523539876,248.44822827714518ZM378.99200037114383,240.17607564170044L381.3197088660634,241.5316299852168L381.94955563348833,244.4663842626963L383.68895298062426,248.06569332860715L378.78202788883743,250.36315256694007L375.9915898985688,251.40424361550788L371.26020523539876,248.44822827714518L368.73130935289646,248.06569332860715L367.98425256020516,246.80985530108285L363.3881170391457,247.4102698583166L355.4753610458397,247.02814459599142L350.10355971258144,248.8855951928798L350.1218629694056,244.30310159157665L352.3124477464175,240.55543008116018L356.6067036707397,238.49796307171516L360.5546683881623,242.99785755345948L364.30618739578426,242.83482954833846L364.95431479619714,238.22758887626094L368.886082335326,237.20090254180565L370.94173576116765,237.90324620408404L375.1150381263686,240.1218949252446ZM381.3457785304608,228.1742368821047L382.0912227392061,229.24393981355854L379.05503194487403,232.6759396603531L380.83225679036104,238.22758887626094L378.99200037114383,240.17607564170044L375.1150381263686,240.1218949252446L370.94173576116765,237.90324620408404L368.886082335326,237.20090254180565L364.95431479619714,238.22758887626094L365.3134813578478,234.72009009840542L363.6374027566265,235.47439062052126L360.60345819639133,233.32094833577804L360.0211236478715,229.88640306584085L365.79094198968966,228.22769022521305L371.54539638775617,227.37283935086253L376.58958880938377,228.38807036130913ZM317.28882438824775,262.81589938267996L318.4016483948838,265.92422066245103L317.05056498307806,267.5929592344853L318.780829699259,269.7659780288705L319.99388284783265,273.1170171211315L319.5969181268898,275.24421871067676L321.5658827801136,279.22860813306227L319.4123350240625,279.90327399494043L318.14016323931247,279.1724020850066L316.9051213353378,280.3532488034777L313.3777517084968,281.59148891302675L311.558236856878,283.1127544232043L307.9696194911547,284.46645917543873L308.7859000023377,286.3300279319725L309.28614598315136,288.9885678682168L311.79938701800035,290.5180898452054L314.5790767333918,293.2412480699555L312.7759172904289,296.1400904056227L310.98343029012926,296.9368180740486L311.66225881007415,301.0406732861903L311.2043207010365,302.1253828079141L309.64718807333674,300.86946909754414L307.27499266576444,300.6412248906437L303.67293950877166,301.78276553984443L299.28337848431295,301.49730564543086L298.5766820354555,303.2108050642388L296.05640013799143,301.4402196270335L294.56880547174177,301.78276553984443L289.2867502435445,299.84262370649697L288.21700290151426,301.2118954647914L284.00527092748655,301.15481940852607L284.77951159463504,296.6522252343222L287.4132735847089,292.33296500094326L280.34089983747253,291.1984019870204L278.0525366810156,289.55486589477425L278.47482156144076,286.78218571616577L277.5160670524124,285.36968820000897L278.2662499683451,281.14108292913295L277.7148493000939,274.57206741460675L280.6440605800676,274.57206741460675L281.9620651522589,272.2224774821523L283.4048582902581,266.59142015923356L282.5806057356007,264.47998540842985L283.5837738096498,263.2039605380455L287.61423392276015,262.8713282529943L288.431456612921,264.2024629934345L291.81539687545586,261.15434712842006L290.76970559153455,258.88770786118243L290.6721670569915,255.41431020305555L294.2480905221779,256.1851727591506L297.317740091565,255.24920053167534L297.34058066543804,257.61830007117675L302.1637485694343,259.05339571068475L302.0313135904467,261.265037881769L306.92210978507796,260.10335405803676L309.65727968489705,258.39080041035993L315.0135229898331,260.82234322248627ZM360.3117133183105,322.8024341413057L361.85341495716807,325.4020582236336L363.80453007238674,324.93968433108006L367.7706470322938,325.92234006035574L375.24134548062074,326.26925960130734L377.68777770398594,324.6507481928746L383.60186165757096,323.1488764273052L387.3715994069146,325.45986151690045L390.4264739730489,326.1536139997827L387.9075599232795,328.8148976418005L386.2982180976526,333.45010396634234L388.08648246473444,337.1061354832902L383.6648954976676,336.2352063980566L378.5396568056476,338.267795643335L378.57762980416595,341.46477059515547L373.9277988122733,342.1045773752191L370.2382571081253,339.83678512538904L366.18201449953307,341.6392500126424L362.38042698032274,341.40661302212214L361.88719847264105,337.1642071144625L359.24632473536076,335.07439669477117L360.0967725746407,334.2041164994415L359.521604465819,333.39211194226243L360.2910772713328,331.36320825252386L362.20414573374455,329.335929024128L359.6467457317619,326.5583987008397L359.1218994181255,324.24629939411125ZM381.02040663861675,380.6265906027655L380.42112762153147,382.56283844997483L372.8368031589906,383.0909853431032L372.85357211864573,382.0347250127067L366.41020331989864,380.74392561166155L367.28630344888245,377.9870310415184L370.2387941731722,380.21593197965376L374.3056832959325,379.80529520911176L378.2571104894831,380.2745961660072L378.15281656622665,381.44797226527993ZM362.38042698032274,341.40661302212214L366.18201449953307,341.6392500126424L370.2382571081253,339.83678512538904L373.9277988122733,342.1045773752191L378.57762980416595,341.46477059515547L378.5396568056476,338.267795643335L381.1047467423959,339.953040206174L379.65408572654997,344.0247932840689L378.4765935118881,344.7233436497554L375.3162702550114,344.54869177446574L372.60583462111583,343.966587655921L366.44714682543895,345.654979517098L370.14113901253074,349.2675267888682L367.52199422265994,350.31703687820976L364.6354351515371,350.31703687820976L361.8435606359575,346.99466865257756L360.9058405076997,348.39317340884736L362.17555546757103,352.30027433188087L364.8268057211236,355.335474458897L362.902869959709,356.73712122784696L365.889067182921,359.77563452920447L368.5219479867817,361.6465350170362L368.72522948822973,365.3320505730866L363.8362458274246,363.57669327002964L365.47739010463386,366.9123933224674L362.15229142543785,367.55637361385436L364.27820016307555,373.29692239409314L360.83223806537484,373.41413422866697L356.47369815246066,370.6016704244255L354.38726034707935,365.39057311247376L353.35986393378835,361.06179577673515L351.2865418831117,358.0808124402393L348.55276947854685,354.3429370167708L348.1938561524827,352.53366614166134L350.5101903378212,349.38412371267833L350.7938534314386,347.28597645151996L352.44658152769523,346.35388039128986L352.50184142159804,344.60690801199286L355.87465882887574,344.0829999783314L357.78464118379804,342.62815511055146L360.6128153259593,342.7445177808173L361.4153159045544,341.6392500126424ZM352.50184142159804,344.60690801199286L352.44658152769523,346.35388039128986L350.7938534314386,347.28597645151996L350.5101903378212,349.38412371267833L348.1938561524827,352.53366614166134L347.29988874010223,352.0668970327546L347.18146738757866,350.60862202688145L344.26097565278843,348.45145680945865L343.7486357771744,345.36381465291913L344.14217386458483,340.9413927966438L344.80307547275305,338.96501930560277L343.9085702319061,337.9192475150454L343.552907569868,335.88691164411085L345.7081711852108,332.6963080939281L346.05214765337445,333.9140862091339L347.4216633815635,333.33412120141213L348.5603609298651,335.07439669477117L349.77233378075726,335.7708232290826L350.1893487708637,338.0935162438541L349.5413198195956,340.3018329557814L350.3368399998034,343.03544353829335ZM329.3244001824691,308.2470632520541L330.9542937147409,309.04961972968334L334.73027614933767,311.8039248412532L338.86364938134693,313.01021369339486L340.75066889928144,312.0910666964747L342.0138344532091,314.56227488935366L343.6325996320934,316.34579214674557L341.7651602043985,318.76469842759684L339.42453137763454,317.3245271922442L335.92729063051485,317.4397036210208L331.60201579509095,316.4033516278028L329.2418158147826,316.51847554614614L328.1591588064552,317.84287238072204L326.3353468861896,316.4033516278028L325.2991698036456,319.0528533112485L327.7709852206821,322.05199614591317L328.87686251273374,324.01521831132175L331.22461217677824,326.4427387651651L333.204833927496,327.8310330576909L335.1569958661253,330.55209867249397L339.68877747789094,332.98620377239035L339.1505235428787,334.0300945169297L334.29532766555025,331.652953408589L331.337790715367,329.335929024128L326.652200271122,327.42602972915L322.38982272561253,322.7446990409684L323.39295460666295,322.22515133609187L321.11309831192807,319.5716323891464L321.02289910793303,317.38211459128865L317.75430875013484,316.4033516278028L316.19911823473626,319.1104890737871L314.7091971977672,316.9790371142361L314.8572575249002,314.79231550132187L315.0392356256248,314.6772918131553L318.52975808338897,314.90734594355075L319.4838506615946,313.8148304778134L321.1599119099112,314.84982987882233L323.1552505637683,314.96486369421956L323.107554085996,313.18260317647196L324.871843423516,312.5505845530321L325.36140413388205,309.96726317179645ZM294.56880547174177,301.78276553984443L294.72159929761756,302.9250990244194L293.92167881501047,304.46848854187454L296.1444238563692,305.6126444628752L298.70588342109573,305.7843334953414L298.24891482518416,308.41900947017405L296.01671894283743,309.4510317909135L292.3346639516234,308.64829673537093L291.1865781703287,311.2297729625063L288.78420140800534,311.4594125640684L287.9538946221627,310.42625773456376L285.08689122745267,312.60803212330245L282.6335527598638,312.89529601159967L280.50720908616125,311.5168268760813L278.88697807489376,308.7629513336782L276.4589340211948,309.73780897660566L276.6577725699751,306.87209124962595L280.43357155637483,303.26795212667236L280.3112621847278,301.6685756267617L282.5789102244679,302.2396043724124L284.00527092748655,301.15481940852607L288.21700290151426,301.2118954647914L289.2867502435445,299.84262370649697ZM277.5160670524124,285.36968820000897L278.47482156144076,286.78218571616577L278.0525366810156,289.55486589477425L276.6283979060294,289.66815262428264L275.54357398830933,289.1018093571913L276.2250640626148,285.59558963071044ZM278.2662499683451,281.14108292913295L277.5160670524124,285.36968820000897L276.2250640626148,285.59558963071044L275.54357398830933,289.1018093571913L271.37595509552204,286.2735186733229L268.83290940253073,286.7256578657988L265.5826499054535,283.78943515384185L263.4306234773125,281.2536698010838L261.1487652229876,281.14108292913295L260.5752139170005,278.9476027409996L264.55247550215563,277.71192008961043L268.12211029834225,278.2172802401225L272.7038479995006,276.92620948338293L275.647372279361,279.67834578377847ZM282.5806057356007,264.47998540842985L283.4048582902581,266.59142015923356L281.9620651522589,272.2224774821523L280.6440605800676,274.57206741460675L277.7148493000939,274.57206741460675L278.2662499683451,281.14108292913295L275.647372279361,279.67834578377847L272.7038479995006,276.92620948338293L268.12211029834225,278.2172802401225L264.55247550215563,277.71192008961043L267.1868531067438,276.02886220536664L271.89616372547505,266.92516811015145L278.60751151451444,264.31346360051117ZM198.241324810906,337.9192475150454L200.2767832337285,336.29325981445527L202.43213028199847,335.36455269659734L203.45361995032928,338.5001847192515L206.4549947609018,338.5001847192515L207.39930714216143,337.6869058643971L210.38026192932267,337.9192475150454L211.55966041701842,341.11584195555577L209.05710704343977,342.9190699699349L208.5726101383516,347.9269416113275L207.66343989198378,348.85946798561156L207.23896577893746,351.9502138464847L204.96080027577466,352.4753168326534L206.7157481845423,356.38666438778L204.99228538968748,360.65252281352514L206.63260873687233,362.58227106785813L205.80080958659147,364.337271673156L203.69429909327914,366.795314410614L203.96558005667902,368.90312643473305L201.7215691730631,370.6016704244255L199.05126418445633,369.72304974340045L196.26363198251414,370.4259355576828L197.4544370286768,365.3320505730866L197.2960566347993,361.3541560978035L195.0031901621631,360.7109881194991L193.98601019679143,358.2561080388543L194.71027515323422,354.0510618037445L197.0094297708859,351.6585218854635L197.60222820005635,349.0343445202906L199.00152804933617,345.1309014699783L199.0970453154618,342.3954429057684L198.2768566182873,340.12743143220666ZM203.96558005667902,368.90312643473305L203.69429909327914,366.795314410614L205.80080958659147,364.337271673156L206.63260873687233,362.58227106785813L204.99228538968748,360.65252281352514L206.7157481845423,356.38666438778L204.96080027577466,352.4753168326534L207.23896577893746,351.9502138464847L207.66343989198378,348.85946798561156L208.5726101383516,347.9269416113275L209.05710704343977,342.9190699699349L211.55966041701842,341.11584195555577L210.38026192932267,337.9192475150454L207.39930714216143,337.6869058643971L206.4549947609018,338.5001847192515L203.45361995032928,338.5001847192515L202.43213028199847,335.36455269659734L200.2767832337285,336.29325981445527L198.241324810906,337.9192475150454L198.9298632117551,333.33412120141213L197.07214354577255,330.55209867249397L204.73694854183896,325.92234006035574L210.86008620964034,327.07893900402064L217.68667317134714,327.0210955047745L223.0065265863787,328.1203632212487L227.2470289279318,327.7731712246767L235.4775703609941,328.0046269611103L237.3352521502784,330.4941723085968L246.58386827273307,333.39211194226243L248.49945757849264,332.0006911397236L254.09665174633795,334.9583430218131L260.07723344041244,334.08810057620593L260.1847862130074,337.8611603155957L255.08872608148175,342.1627482773081L248.44595969818,343.5009811491691L247.8690997699134,345.7132155965871L244.52557197873546,349.2675267888682L242.24345484110387,354.5764528371269L244.06491241350392,358.2561080388543L240.91830699878685,361.1787376652788L239.57569527550282,365.39057311247376L235.55770747608793,366.67823810687037L231.61168289909466,371.7147803100248L224.95338093838,371.77337082637865L219.95739406911494,371.6561903667051L216.5101940502608,373.9416144404894L214.36959818723113,376.4037551041115L211.80047740187916,375.87607685023477L210.00375961397566,373.7071733660693L208.7933924686128,369.95733542190794ZM219.84044511441357,262.0955806481689L220.18625220871883,266.53580509244824L215.94536332525496,272.0548260897584L206.9292920176738,275.74857483906123L200.1728048803219,274.7960766559185L204.88067391686462,268.3168419712131L203.14515914517813,262.0401912884027L210.24185989193717,257.2322637447296L214.18751085846858,254.3690652627705L214.79052917916593,257.61830007117675L213.4151092202835,260.93299979049783L216.35873311427184,260.82234322248627ZM298.70588342109573,305.7843334953414L301.70564484629665,306.7002949916638L302.3108353737052,305.49819458271753L307.2739536701378,304.35411504731036L308.3725999384465,306.5857735048011L315.52459352059276,308.2470632520541L314.9661953832898,311.40200001541166L316.1298886381944,314.1022750439005L312.14901637300943,313.18260317647196L308.0488864570257,315.4250662389558L308.2873945498275,318.5918246866597L307.6302979721704,320.43654849932983L309.2846515723121,323.6686412422282L314.01511518125517,326.9054127646178L316.5589149454364,332.23254256135647L322.2151722650795,337.45458331736177L326.2291660594655,337.3965056744966L327.48116209438035,338.8488036284502L326.05354703549006,340.12743143220666L330.6915957745217,342.453619312091L334.460298120101,344.43226246785844L338.9518031570174,347.7521209896671L339.4780694752617,348.9760513719439L338.5281129205978,351.3085218688305L335.65707688213877,348.27660955151475L331.14033492664385,347.2277128826631L328.97804790642425,351.4251848507399L332.77000844048064,353.81757736701496L332.1871151305845,357.20444320419676L329.99082725545935,357.5549690344786L327.2513612243374,363.16720032196383L325.092725503094,363.635195093851L325.08820849973944,361.6465350170362L326.15669356508266,358.1976753729486L327.2746465365275,356.79553359663436L325.2081315792563,353.05885040768123L323.61760928240085,349.79224318917886L321.47674247157147,348.9760513719439L319.9911590840581,346.17914132090505L316.65241289671314,345.01445113978014L314.43873630058937,342.3954429057684L310.6449818226782,341.98823888522435L306.64853504276977,339.0812396539824L301.99683175253654,334.8422943506619L298.6059813019337,331.1314359893994L297.1170294421374,324.76631824558126L294.6177803147206,324.0729863586807L290.55834391024587,321.93656698708L288.1643661622271,322.8024341413057L285.16078009800253,325.7488997509486L283.0414211354094,326.26925960130734L283.7191340959029,323.43761968404436L281.0053175860693,322.6292333779702L279.846264880862,317.6700760211865L281.6363747720586,315.7127472878605L280.26379004164085,313.3550081810386L280.50720908616125,311.5168268760813L282.6335527598638,312.89529601159967L285.08689122745267,312.60803212330245L287.9538946221627,310.42625773456376L288.78420140800534,311.4594125640684L291.1865781703287,311.2297729625063L292.3346639516234,308.64829673537093L296.01671894283743,309.4510317909135L298.24891482518416,308.41900947017405ZM320.2566563574199,362.1143796565832L324.1969191332106,361.58805775140905L322.3234273852551,366.67823810687037L323.12531830594725,368.6688847564216L322.04289009994824,372.0663319715863L318.0353838973938,369.605910527647L315.3511758658636,368.90312643473305L308.0756401398495,365.56614477854885L308.8544916831349,362.23134814466425L314.9519419078195,362.81623415220804ZM289.11479549656997,344.25762644629333L291.70622839803326,342.27909338984534L294.72364566469105,346.81989605924934L293.82116568215025,355.3938667237679L291.4934785047706,354.9851387762296L289.2995682134907,357.14602508625103L287.3731389250679,355.4522598384928L287.36597851461397,347.6355788730209L286.295191961965,343.9083830950394ZM297.317740091565,255.24920053167534L294.2480905221779,256.1851727591506L290.6721670569915,255.41431020305555L288.8682073649358,252.00747926792457L288.97243709856684,245.77365837772777L289.7956458146069,244.13984712753745L291.21311179656857,242.3459160613403L295.3615847866199,241.96582714690874L297.0543246142601,240.33863695965005L300.8450781610956,238.60613528872608L300.64237213312487,241.69443012570918L299.19775313709914,243.70463996168786L299.7045275081531,245.39218444471976L302.22680287014003,246.2643488441376L301.02794997211817,248.55755161026588L299.64130229944544,247.90179588803534L296.1166405199324,252.28179776523433ZM309.0660402370203,248.3935712135247L310.5583510724357,251.4590681379317L307.6241071306158,256.40552506917624L302.72081933117863,252.94046848003518L302.0923520239573,250.41791954944176ZM219.84044511441357,262.0955806481689L216.35873311427184,260.82234322248627L213.4151092202835,260.93299979049783L214.79052917916593,257.61830007117675L214.18751085846858,254.3690652627705L218.1991605893806,254.0941787006641L222.87839316358645,257.8941276771106ZM235.53004397350523,261.37574001365226L232.65776196703754,257.61830007117675L232.62552872078933,257.5079894041637L226.9366042435858,256.46062048295215L225.95274575458515,254.80903812187347L227.99529342579217,252.06233695113707L226.5980162719336,250.36315256694007L223.7225274419306,253.26996561978058L224.11490478532127,247.4102698583166L222.0956141217763,244.30310159157665L224.50807137836227,238.0654030271803L228.67030038156076,233.21341397150206L232.33285330596854,233.69742216569819L237.9804074267202,233.21341397150206L232.31403455448165,239.688564316986L237.1929905362298,238.87662212529847L242.27957649739466,238.87662212529847L240.58855895014932,243.8134229103149L235.8273950633752,249.21374900110425L240.68531094176421,249.5967341665421L241.00839960435687,250.2536277154838L244.61179307560246,257.4528384407911L247.79559387312347,258.44600077175426L250.2278327387982,265.47964131275586L251.39570948338218,267.8713213534757L257.1761268480218,269.09691976516456L256.30409217040614,273.06108876384747L253.73750663763053,274.85208540910725L255.44860408217596,278.104960426084L250.83644609751997,281.3662664288609L244.32666999522556,281.30996689610106L235.82494892930225,283.0000078259892L233.6769401844979,281.81675030383843L230.16192374379364,284.7486533305693L225.6808797278062,284.0150717892186L222.01514906913098,286.3865395189415L219.52599014542545,285.14382435995145L227.32279779470434,278.6104784015076L231.8315550588872,277.2628820387091L231.79270022351778,277.2067636287535L224.2629710877506,276.1970652368475L223.14843665717575,273.73240110924223L228.40026470341235,271.7754597699957L226.06923378299365,268.42824922937456L227.37639812272351,264.4244753542439L234.4642239837019,264.9797010226206ZM192.93193534746575,187.79949918481486L191.1888622773929,191.45869070122495L195.43789602651512,195.29100586220994L188.88085356278899,199.65943172184814L175.24537307696693,203.58764883434833L171.1596977384962,204.6767607796603L165.4852119762701,203.7949762447392L153.47288303540404,201.98282069680437L158.43419457989918,199.45326501694063L149.5165637738178,196.67574560370775L157.5789575161022,195.5472361209802L157.8312171300735,193.85782709922802L148.90019965614562,192.58066450019368L152.81406685468787,188.86474046126153L159.65346805095902,188.05297626790178L165.53956277049585,191.86647170337062L172.89742765004053,188.81397677758855L178.05266901228006,190.3894076226174L185.80083538288267,187.39413358415476ZM315.52459352059276,308.2470632520541L319.6728490021577,308.7056231217945L322.1984340882779,307.273014465993L326.56854066706586,307.1011790574905L327.5093946141762,306.0705196957238L328.364999549722,306.1277625960849L329.3244001824691,308.2470632520541L325.36140413388205,309.96726317179645L324.871843423516,312.5505845530321L323.107554085996,313.18260317647196L323.1552505637683,314.96486369421956L321.1599119099112,314.84982987882233L319.4838506615946,313.8148304778134L318.52975808338897,314.90734594355075L315.0392356256248,314.6772918131553L316.1298886381944,314.1022750439005L314.9661953832898,311.40200001541166ZM379.3795891227732,173.2643180772696L379.09235056449785,177.14095981018323L386.02987467613826,180.84142395432036L382.47227552942917,185.01754698736204L388.16393654715307,191.45869070122495L385.66923963759194,196.31648082013703L390.06699500757304,200.58790367646998L388.6251023736585,204.31354702904633L395.6253426620543,208.26641092541917L394.2673602810454,211.24456674913313L390.3615689683362,214.60212925985275L381.29321799017544,222.10268166207436L373.0097210125464,222.58041001722472L365.10000536845325,224.76022271521282L357.6801064950673,225.98554324420024L354.8924529227208,222.73971430403316L350.3709182021257,220.8300951413081L351.1707662912989,215.0754387688803L348.7707892154127,209.7801734453837L350.780508001127,206.4434449120584L354.6400256854727,202.81068529583143L364.4744664838159,196.57308010624098L367.33509633576455,195.3934868761741L366.6970904630494,192.98910323448712L360.45435342460087,190.33853071578437L358.8309772363856,188.10368308085975L358.2145723667856,179.48873562815868L351.33711902667784,175.746497290962L345.53480046125503,173.0166650191423L347.9995270336575,171.58232399569107L352.88915706585277,174.50412858582843L358.4385694234876,174.20633988636422L363.0968614688413,175.54754732338574L366.99164025392236,173.11571383736998L368.7774670984948,169.06842853653336L375.15613057853653,167.25157308932785L380.7978016041479,169.4128197389162ZM358.8194861648455,291.9357675522091L357.4936611056855,293.525200945686L356.63996921219143,296.0831970664601L355.5899105140062,296.76605608514143L350.22658055325445,294.83207991472284L348.6317457693929,295.23005099684264L347.50702131484684,296.7091396113645L345.15756459657325,297.5061604631259L344.61318897702597,297.10759888737L342.2192541801656,298.07571072808986L340.2552271062194,298.2466161512332L339.8732437988099,299.5004874087095L335.7207305714817,300.2989188437312L333.8768897676782,299.6145247201855L331.3110364180928,297.9617841067103L330.8013459232264,295.7987620588441L331.1958798728624,295.0026261415399L331.89573830840493,293.58199803093027L334.07858525607827,293.69559870132707L335.76245185052943,293.0709024307456L335.88773942673566,292.4464697607092L336.8177368573971,292.1627243272795L337.1530096666613,290.7448248979623L338.2587618608702,290.4614116677646L338.9950632118804,289.32831952976335L340.50287601087643,289.32831952976335L340.7760619260454,289.7247993713818L342.7999543293319,288.8753354575205L345.3311378885228,291.08499436709707L348.1848130000374,289.7247993713818L350.55439629023317,290.40473572714876L354.07833797915066,289.4982259148831ZM321.5658827801136,279.22860813306227L323.89846989047857,281.2536698010838L327.5541555091581,281.76043131289515L327.2556162720066,283.5074430081305L329.9564572334788,284.8050992555926L330.64868085288833,283.16913132047455L334.0083076541978,283.9022487085122L334.5180941565913,285.8780191601187L338.14816504801115,286.2170117442359L340.50287601087643,289.32831952976335L338.9950632118804,289.32831952976335L338.2587618608702,290.4614116677646L337.1530096666613,290.7448248979623L336.8177368573971,292.1627243272795L335.88773942673566,292.4464697607092L335.76245185052943,293.0709024307456L334.07858525607827,293.69559870132707L331.89573830840493,293.58199803093027L331.1958798728624,295.0026261415399L328.9143392304476,293.80920802977374L326.600328772374,294.1500878614369L322.7672807261825,292.21946902134334L321.0329129835084,292.67350558009963L318.222620150753,295.28691253896807L314.5790767333918,293.2412480699555L311.79938701800035,290.5180898452054L309.28614598315136,288.9885678682168L308.7859000023377,286.3300279319725L307.9696194911547,284.46645917543873L311.558236856878,283.1127544232043L313.3777517084968,281.59148891302675L316.9051213353378,280.3532488034777L318.14016323931247,279.1724020850066L319.4123350240625,279.90327399494043ZM339.68877747789094,332.98620377239035L335.1569958661253,330.55209867249397L333.204833927496,327.8310330576909L331.22461217677824,326.4427387651651L328.87686251273374,324.01521831132175L327.7709852206821,322.05199614591317L325.2991698036456,319.0528533112485L326.3353468861896,316.4033516278028L328.1591588064552,317.84287238072204L329.2418158147826,316.51847554614614L331.60201579509095,316.4033516278028L335.92729063051485,317.4397036210208L339.42453137763454,317.3245271922442L341.7651602043985,318.76469842759684L343.5847032081604,318.76469842759684L342.35770601554736,321.59031626842767L344.86387105426195,324.01521831132175L344.1407768960616,327.07893900402064L342.95510404268657,327.3681777419608L342.0024456008523,327.9467609271535L340.37379025913805,329.393828262741ZM359.24632473536076,335.07439669477117L361.88719847264105,337.1642071144625L362.38042698032274,341.40661302212214L361.4153159045544,341.6392500126424L360.6128153259593,342.7445177808173L357.78464118379804,342.62815511055146L355.87465882887574,344.0829999783314L352.50184142159804,344.60690801199286L350.3368399998034,343.03544353829335L349.5413198195956,340.3018329557814L350.1893487708637,338.0935162438541L350.83683891959214,338.151608192972L351.0390738320545,336.8157954402903L354.01341028864834,335.82886682042414L355.15983936774745,335.59669986117814L356.9002667734628,335.19045535986174ZM340.75066889928144,312.0910666964747L344.5632550328346,310.3688771474193L347.6867866078215,310.65579793653296L350.50389836846233,313.18260317647196L351.0959830882063,315.1949515305518L354.21998010264804,316.69117379496913L354.69917452202117,319.3410480340415L357.6646410158133,321.18642707231726L359.21844970267813,319.8022420573899L360.51636990691543,320.55189731128604L359.3647247112399,321.6480208851886L360.3117133183105,322.8024341413057L359.1218994181255,324.24629939411125L359.6467457317619,326.5583987008397L362.20414573374455,329.335929024128L360.2910772713328,331.36320825252386L359.521604465819,333.39211194226243L360.0967725746407,334.2041164994415L359.24632473536076,335.07439669477117L356.9002667734628,335.19045535986174L355.15983936774745,335.59669986117814L354.9627271753991,335.07439669477117L355.58867289509436,334.3201374874942L356.1010122505657,332.7542846387629L355.3667669789013,332.8122624802479L354.3713133192413,331.5950017326258L353.5374231610758,331.3052631945783L352.8239363419377,330.26248031063784L351.8508570004414,329.8570713161829L351.09602359996967,328.93067276236263L350.23368710106024,329.335929024128L349.54500237877437,331.47910234536823L348.35991418340444,331.9427315626501L348.76169847310365,331.36320825252386L346.7612757560272,330.03080990412775L345.09693856902715,329.335929024128L344.3480832485073,328.46760544984903L342.95510404268657,327.3681777419608L344.1407768960616,327.07893900402064L344.86387105426195,324.01521831132175L342.35770601554736,321.59031626842767L343.5847032081604,318.76469842759684L341.7651602043985,318.76469842759684L343.6325996320934,316.34579214674557L342.0138344532091,314.56227488935366ZM347.4216633815635,333.33412120141213L346.05214765337445,333.9140862091339L345.7081711852108,332.6963080939281L343.552907569868,335.88691164411085L343.9085702319061,337.9192475150454L342.8398175870503,337.45458331736177L341.3791974398598,335.36455269659734L339.1505235428787,334.0300945169297L339.68877747789094,332.98620377239035L340.37379025913805,329.393828262741L342.0024456008523,327.9467609271535L342.95510404268657,327.3681777419608L344.3480832485073,328.46760544984903L345.09693856902715,329.335929024128L346.7612757560272,330.03080990412775L348.76169847310365,331.36320825252386L348.35991418340444,331.9427315626501ZM350.1893487708637,338.0935162438541L349.77233378075726,335.7708232290826L348.5603609298651,335.07439669477117L347.4216633815635,333.33412120141213L348.35991418340444,331.9427315626501L349.54500237877437,331.47910234536823L350.23368710106024,329.335929024128L351.09602359996967,328.93067276236263L351.8508570004414,329.8570713161829L352.8239363419377,330.26248031063784L353.5374231610758,331.3052631945783L354.3713133192413,331.5950017326258L355.3667669789013,332.8122624802479L356.1010122505657,332.7542846387629L355.58867289509436,334.3201374874942L354.9627271753991,335.07439669477117L355.15983936774745,335.59669986117814L354.01341028864834,335.82886682042414L351.0390738320545,336.8157954402903L350.83683891959214,338.151608192972Z" style="fill: none; stroke-miterlimit: 2; stroke: rgb(68, 68, 68); stroke-opacity: 1; stroke-width: 1px;"/></g><g class="layer backplot"><g class="choroplethlayer"/></g><g class="layer frontplot"><g class="scatterlayer"><g class="trace scattergeo" style="opacity: 1;"><path class="point" d="M10.61,0A10.61,10.61 0 1,1 0,-10.61A10.61,10.61 0 0,1 10.61,0Z" transform="translate(275.53357336415115,271.8017173976355)" style="opacity: 0.7; stroke-width: 1px; fill: rgb(255, 255, 255); fill-opacity: 1; stroke: rgb(255, 255, 255); stroke-opacity: 1;"/></g></g></g></g></g><g class="funnelarealayer"/><g class="pielayer"/><g class="iciclelayer"/><g class="treemaplayer"/><g class="sunburstlayer"/><g class="glimages"/><defs id="topdefs-b31d34"><g class="clips"/><clipPath id="legendb31d34"><rect width="115" height="48" x="0" y="0"/></clipPath></defs><g class="layer-above"><g class="imagelayer"/><g class="shapelayer"/></g><g class="infolayer"><g class="legend" pointer-events="all" transform="translate(572.6600000000001,60)"><rect class="bg" shape-rendering="crispEdges" width="115" height="48" x="0" y="0" style="stroke: rgb(68, 68, 68); stroke-opacity: 1; fill: rgb(17, 17, 17); fill-opacity: 1; stroke-width: 0px;"/><g class="scrollbox" transform="" clip-path="url(#legendb31d34)"><text class="legendtitletext" text-anchor="start" x="2" y="18.2" style="font-family: 'Open Sans', verdana, arial, sans-serif; font-size: 14px; fill: rgb(242, 245, 250); fill-opacity: 1; white-space: pre;">country</text><g class="groups" transform=""><g class="traces" transform="translate(0,32.7)" style="opacity: 1;"><text class="legendtext" text-anchor="start" x="40" y="4.680000000000001" style="font-family: 'Open Sans', verdana, arial, sans-serif; font-size: 12px; fill: rgb(242, 245, 250); fill-opacity: 1; white-space: pre;">Netherlands</text><g class="layers" style="opacity: 1;"><g class="legendfill"/><g class="legendlines"/><g class="legendsymbols"><g class="legendpoints"><path class="scatterpts" transform="translate(20,0)" d="M6,0A6,6 0 1,1 0,-6A6,6 0 0,1 6,0Z" style="opacity: 0.7; stroke-width: 2px; fill: rgb(255, 255, 255); fill-opacity: 1; stroke: rgb(255, 255, 255); stroke-opacity: 1;"/></g></g></g><rect class="legendtoggle" x="0" y="-9.5" width="109.453125" height="19" style="fill: rgb(0, 0, 0); fill-opacity: 0;"/></g></g></g><rect class="scrollbar" rx="20" ry="3" width="0" height="0" x="0" y="0" style="fill: rgb(128, 139, 164); fill-opacity: 1;"/></g><g class="g-gtitle"/></g></svg>