<?xml version="1.0" encoding="utf-8" standalone="no"?>
<!DOCTYPE svg PUBLIC "-//W3C//DTD SVG 1.1//EN"
  "http://www.w3.org/Graphics/SVG/1.1/DTD/svg11.dtd">
<svg xmlns:xlink="http://www.w3.org/1999/xlink" width="374.913103pt" height="208.321191pt" viewBox="0 0 374.913103 208.321191" xmlns="http://www.w3.org/2000/svg" version="1.1">
 <metadata>
  <rdf:RDF xmlns:dc="http://purl.org/dc/elements/1.1/" xmlns:cc="http://creativecommons.org/ns#" xmlns:rdf="http://www.w3.org/1999/02/22-rdf-syntax-ns#">
   <cc:Work>
    <dc:type rdf:resource="http://purl.org/dc/dcmitype/StillImage"/>
    <dc:date>2025-05-03T22:07:42.942014</dc:date>
    <dc:format>image/svg+xml</dc:format>
    <dc:creator>
     <cc:Agent>
      <dc:title>Matplotlib v3.10.0, https://matplotlib.org/</dc:title>
     </cc:Agent>
    </dc:creator>
   </cc:Work>
  </rdf:RDF>
 </metadata>
 <defs>
  <style type="text/css">*{stroke-linejoin: round; stroke-linecap: butt}</style>
 </defs>
 <g id="figure_1">
  <g id="patch_1">
   <path d="M 0 208.321191 
L 374.913103 208.321191 
L 374.913103 0 
L 0 0 
z
"/>
  </g>
  <g id="axes_1">
   <g id="patch_2">
    <path d="M 262.653378 32.658966 
L 236.27164 32.658966 
L 220.925432 51.902504 
" style="fill: none; stroke: #ffffff; stroke-linecap: round"/>
   </g>
   <g id="text_1">
    <g id="patch_3">
     <path d="M 268.013103 40.498028 
L 367.713103 40.498028 
Q 370.713103 40.498028 370.713103 37.498028 
L 370.713103 27.819903 
Q 370.713103 24.819903 367.713103 24.819903 
L 268.013103 24.819903 
Q 265.013103 24.819903 265.013103 27.819903 
L 265.013103 37.498028 
Q 265.013103 40.498028 268.013103 40.498028 
z
" style="fill: #ffffff; stroke: #000000; stroke-width: 0.72; stroke-linejoin: miter"/>
    </g>
    <!-- Internship - Count:1 -->
    <g transform="translate(268.013103 35.418341) scale(0.1 -0.1)">
     <defs>
      <path id="DejaVuSans-49" d="M 628 4666 
L 1259 4666 
L 1259 0 
L 628 0 
L 628 4666 
z
" transform="scale(0.015625)"/>
      <path id="DejaVuSans-6e" d="M 3513 2113 
L 3513 0 
L 2938 0 
L 2938 2094 
Q 2938 2591 2744 2837 
Q 2550 3084 2163 3084 
Q 1697 3084 1428 2787 
Q 1159 2491 1159 1978 
L 1159 0 
L 581 0 
L 581 3500 
L 1159 3500 
L 1159 2956 
Q 1366 3272 1645 3428 
Q 1925 3584 2291 3584 
Q 2894 3584 3203 3211 
Q 3513 2838 3513 2113 
z
" transform="scale(0.015625)"/>
      <path id="DejaVuSans-74" d="M 1172 4494 
L 1172 3500 
L 2356 3500 
L 2356 3053 
L 1172 3053 
L 1172 1153 
Q 1172 725 1289 603 
Q 1406 481 1766 481 
L 2356 481 
L 2356 0 
L 1766 0 
Q 1100 0 847 248 
Q 594 497 594 1153 
L 594 3053 
L 172 3053 
L 172 3500 
L 594 3500 
L 594 4494 
L 1172 4494 
z
" transform="scale(0.015625)"/>
      <path id="DejaVuSans-65" d="M 3597 1894 
L 3597 1613 
L 953 1613 
Q 991 1019 1311 708 
Q 1631 397 2203 397 
Q 2534 397 2845 478 
Q 3156 559 3463 722 
L 3463 178 
Q 3153 47 2828 -22 
Q 2503 -91 2169 -91 
Q 1331 -91 842 396 
Q 353 884 353 1716 
Q 353 2575 817 3079 
Q 1281 3584 2069 3584 
Q 2775 3584 3186 3129 
Q 3597 2675 3597 1894 
z
M 3022 2063 
Q 3016 2534 2758 2815 
Q 2500 3097 2075 3097 
Q 1594 3097 1305 2825 
Q 1016 2553 972 2059 
L 3022 2063 
z
" transform="scale(0.015625)"/>
      <path id="DejaVuSans-72" d="M 2631 2963 
Q 2534 3019 2420 3045 
Q 2306 3072 2169 3072 
Q 1681 3072 1420 2755 
Q 1159 2438 1159 1844 
L 1159 0 
L 581 0 
L 581 3500 
L 1159 3500 
L 1159 2956 
Q 1341 3275 1631 3429 
Q 1922 3584 2338 3584 
Q 2397 3584 2469 3576 
Q 2541 3569 2628 3553 
L 2631 2963 
z
" transform="scale(0.015625)"/>
      <path id="DejaVuSans-73" d="M 2834 3397 
L 2834 2853 
Q 2591 2978 2328 3040 
Q 2066 3103 1784 3103 
Q 1356 3103 1142 2972 
Q 928 2841 928 2578 
Q 928 2378 1081 2264 
Q 1234 2150 1697 2047 
L 1894 2003 
Q 2506 1872 2764 1633 
Q 3022 1394 3022 966 
Q 3022 478 2636 193 
Q 2250 -91 1575 -91 
Q 1294 -91 989 -36 
Q 684 19 347 128 
L 347 722 
Q 666 556 975 473 
Q 1284 391 1588 391 
Q 1994 391 2212 530 
Q 2431 669 2431 922 
Q 2431 1156 2273 1281 
Q 2116 1406 1581 1522 
L 1381 1569 
Q 847 1681 609 1914 
Q 372 2147 372 2553 
Q 372 3047 722 3315 
Q 1072 3584 1716 3584 
Q 2034 3584 2315 3537 
Q 2597 3491 2834 3397 
z
" transform="scale(0.015625)"/>
      <path id="DejaVuSans-68" d="M 3513 2113 
L 3513 0 
L 2938 0 
L 2938 2094 
Q 2938 2591 2744 2837 
Q 2550 3084 2163 3084 
Q 1697 3084 1428 2787 
Q 1159 2491 1159 1978 
L 1159 0 
L 581 0 
L 581 4863 
L 1159 4863 
L 1159 2956 
Q 1366 3272 1645 3428 
Q 1925 3584 2291 3584 
Q 2894 3584 3203 3211 
Q 3513 2838 3513 2113 
z
" transform="scale(0.015625)"/>
      <path id="DejaVuSans-69" d="M 603 3500 
L 1178 3500 
L 1178 0 
L 603 0 
L 603 3500 
z
M 603 4863 
L 1178 4863 
L 1178 4134 
L 603 4134 
L 603 4863 
z
" transform="scale(0.015625)"/>
      <path id="DejaVuSans-70" d="M 1159 525 
L 1159 -1331 
L 581 -1331 
L 581 3500 
L 1159 3500 
L 1159 2969 
Q 1341 3281 1617 3432 
Q 1894 3584 2278 3584 
Q 2916 3584 3314 3078 
Q 3713 2572 3713 1747 
Q 3713 922 3314 415 
Q 2916 -91 2278 -91 
Q 1894 -91 1617 61 
Q 1341 213 1159 525 
z
M 3116 1747 
Q 3116 2381 2855 2742 
Q 2594 3103 2138 3103 
Q 1681 3103 1420 2742 
Q 1159 2381 1159 1747 
Q 1159 1113 1420 752 
Q 1681 391 2138 391 
Q 2594 391 2855 752 
Q 3116 1113 3116 1747 
z
" transform="scale(0.015625)"/>
      <path id="DejaVuSans-20" transform="scale(0.015625)"/>
      <path id="DejaVuSans-2d" d="M 313 2009 
L 1997 2009 
L 1997 1497 
L 313 1497 
L 313 2009 
z
" transform="scale(0.015625)"/>
      <path id="DejaVuSans-43" d="M 4122 4306 
L 4122 3641 
Q 3803 3938 3442 4084 
Q 3081 4231 2675 4231 
Q 1875 4231 1450 3742 
Q 1025 3253 1025 2328 
Q 1025 1406 1450 917 
Q 1875 428 2675 428 
Q 3081 428 3442 575 
Q 3803 722 4122 1019 
L 4122 359 
Q 3791 134 3420 21 
Q 3050 -91 2638 -91 
Q 1578 -91 968 557 
Q 359 1206 359 2328 
Q 359 3453 968 4101 
Q 1578 4750 2638 4750 
Q 3056 4750 3426 4639 
Q 3797 4528 4122 4306 
z
" transform="scale(0.015625)"/>
      <path id="DejaVuSans-6f" d="M 1959 3097 
Q 1497 3097 1228 2736 
Q 959 2375 959 1747 
Q 959 1119 1226 758 
Q 1494 397 1959 397 
Q 2419 397 2687 759 
Q 2956 1122 2956 1747 
Q 2956 2369 2687 2733 
Q 2419 3097 1959 3097 
z
M 1959 3584 
Q 2709 3584 3137 3096 
Q 3566 2609 3566 1747 
Q 3566 888 3137 398 
Q 2709 -91 1959 -91 
Q 1206 -91 779 398 
Q 353 888 353 1747 
Q 353 2609 779 3096 
Q 1206 3584 1959 3584 
z
" transform="scale(0.015625)"/>
      <path id="DejaVuSans-75" d="M 544 1381 
L 544 3500 
L 1119 3500 
L 1119 1403 
Q 1119 906 1312 657 
Q 1506 409 1894 409 
Q 2359 409 2629 706 
Q 2900 1003 2900 1516 
L 2900 3500 
L 3475 3500 
L 3475 0 
L 2900 0 
L 2900 538 
Q 2691 219 2414 64 
Q 2138 -91 1772 -91 
Q 1169 -91 856 284 
Q 544 659 544 1381 
z
M 1991 3584 
L 1991 3584 
z
" transform="scale(0.015625)"/>
      <path id="DejaVuSans-3a" d="M 750 794 
L 1409 794 
L 1409 0 
L 750 0 
L 750 794 
z
M 750 3309 
L 1409 3309 
L 1409 2516 
L 750 2516 
L 750 3309 
z
" transform="scale(0.015625)"/>
      <path id="DejaVuSans-31" d="M 794 531 
L 1825 531 
L 1825 4091 
L 703 3866 
L 703 4441 
L 1819 4666 
L 2450 4666 
L 2450 531 
L 3481 531 
L 3481 0 
L 794 0 
L 794 531 
z
" transform="scale(0.015625)"/>
     </defs>
     <use xlink:href="#DejaVuSans-49"/>
     <use xlink:href="#DejaVuSans-6e" transform="translate(29.492188 0)"/>
     <use xlink:href="#DejaVuSans-74" transform="translate(92.871094 0)"/>
     <use xlink:href="#DejaVuSans-65" transform="translate(132.080078 0)"/>
     <use xlink:href="#DejaVuSans-72" transform="translate(193.603516 0)"/>
     <use xlink:href="#DejaVuSans-6e" transform="translate(232.966797 0)"/>
     <use xlink:href="#DejaVuSans-73" transform="translate(296.345703 0)"/>
     <use xlink:href="#DejaVuSans-68" transform="translate(348.445312 0)"/>
     <use xlink:href="#DejaVuSans-69" transform="translate(411.824219 0)"/>
     <use xlink:href="#DejaVuSans-70" transform="translate(439.607422 0)"/>
     <use xlink:href="#DejaVuSans-20" transform="translate(503.083984 0)"/>
     <use xlink:href="#DejaVuSans-2d" transform="translate(534.871094 0)"/>
     <use xlink:href="#DejaVuSans-20" transform="translate(570.955078 0)"/>
     <use xlink:href="#DejaVuSans-43" transform="translate(602.742188 0)"/>
     <use xlink:href="#DejaVuSans-6f" transform="translate(672.566406 0)"/>
     <use xlink:href="#DejaVuSans-75" transform="translate(733.748047 0)"/>
     <use xlink:href="#DejaVuSans-6e" transform="translate(797.126953 0)"/>
     <use xlink:href="#DejaVuSans-74" transform="translate(860.505859 0)"/>
     <use xlink:href="#DejaVuSans-3a" transform="translate(899.714844 0)"/>
     <use xlink:href="#DejaVuSans-31" transform="translate(933.40625 0)"/>
    </g>
   </g>
   <g id="patch_4">
    <path d="M 93.744119 65.066555 
L 94.284784 65.066555 
L 116.460697 75.745909 
" style="fill: none; stroke: #ffffff; stroke-linecap: round"/>
   </g>
   <g id="text_2">
    <g id="patch_5">
     <path d="M 7.2 72.905618 
L 88.3875 72.905618 
Q 91.3875 72.905618 91.3875 69.905618 
L 91.3875 60.227493 
Q 91.3875 57.227493 88.3875 57.227493 
L 7.2 57.227493 
Q 4.2 57.227493 4.2 60.227493 
L 4.2 69.905618 
Q 4.2 72.905618 7.2 72.905618 
z
" style="fill: #ffffff; stroke: #000000; stroke-width: 0.72; stroke-linejoin: miter"/>
    </g>
    <!-- Thesis - Count:1 -->
    <g transform="translate(7.2 67.82593) scale(0.1 -0.1)">
     <defs>
      <path id="DejaVuSans-54" d="M -19 4666 
L 3928 4666 
L 3928 4134 
L 2272 4134 
L 2272 0 
L 1638 0 
L 1638 4134 
L -19 4134 
L -19 4666 
z
" transform="scale(0.015625)"/>
     </defs>
     <use xlink:href="#DejaVuSans-54"/>
     <use xlink:href="#DejaVuSans-68" transform="translate(61.083984 0)"/>
     <use xlink:href="#DejaVuSans-65" transform="translate(124.462891 0)"/>
     <use xlink:href="#DejaVuSans-73" transform="translate(185.986328 0)"/>
     <use xlink:href="#DejaVuSans-69" transform="translate(238.085938 0)"/>
     <use xlink:href="#DejaVuSans-73" transform="translate(265.869141 0)"/>
     <use xlink:href="#DejaVuSans-20" transform="translate(317.96875 0)"/>
     <use xlink:href="#DejaVuSans-2d" transform="translate(349.755859 0)"/>
     <use xlink:href="#DejaVuSans-20" transform="translate(385.839844 0)"/>
     <use xlink:href="#DejaVuSans-43" transform="translate(417.626953 0)"/>
     <use xlink:href="#DejaVuSans-6f" transform="translate(487.451172 0)"/>
     <use xlink:href="#DejaVuSans-75" transform="translate(548.632812 0)"/>
     <use xlink:href="#DejaVuSans-6e" transform="translate(612.011719 0)"/>
     <use xlink:href="#DejaVuSans-74" transform="translate(675.390625 0)"/>
     <use xlink:href="#DejaVuSans-3a" transform="translate(714.599609 0)"/>
     <use xlink:href="#DejaVuSans-31" transform="translate(748.291016 0)"/>
    </g>
   </g>
   <g id="patch_6">
    <path d="M 93.746909 178.297292 
L 120.128975 178.297292 
L 135.475183 159.053753 
" style="fill: none; stroke: #ffffff; stroke-linecap: round"/>
   </g>
   <g id="text_3">
    <g id="patch_7">
     <path d="M 23.578125 186.136355 
L 88.3875 186.136355 
Q 91.3875 186.136355 91.3875 183.136355 
L 91.3875 173.45823 
Q 91.3875 170.45823 88.3875 170.45823 
L 23.578125 170.45823 
Q 20.578125 170.45823 20.578125 173.45823 
L 20.578125 183.136355 
Q 20.578125 186.136355 23.578125 186.136355 
z
" style="fill: #ffffff; stroke: #000000; stroke-width: 0.72; stroke-linejoin: miter"/>
    </g>
    <!-- Job - Count:2 -->
    <g transform="translate(23.578125 181.056667) scale(0.1 -0.1)">
     <defs>
      <path id="DejaVuSans-4a" d="M 628 4666 
L 1259 4666 
L 1259 325 
Q 1259 -519 939 -900 
Q 619 -1281 -91 -1281 
L -331 -1281 
L -331 -750 
L -134 -750 
Q 284 -750 456 -515 
Q 628 -281 628 325 
L 628 4666 
z
" transform="scale(0.015625)"/>
      <path id="DejaVuSans-62" d="M 3116 1747 
Q 3116 2381 2855 2742 
Q 2594 3103 2138 3103 
Q 1681 3103 1420 2742 
Q 1159 2381 1159 1747 
Q 1159 1113 1420 752 
Q 1681 391 2138 391 
Q 2594 391 2855 752 
Q 3116 1113 3116 1747 
z
M 1159 2969 
Q 1341 3281 1617 3432 
Q 1894 3584 2278 3584 
Q 2916 3584 3314 3078 
Q 3713 2572 3713 1747 
Q 3713 922 3314 415 
Q 2916 -91 2278 -91 
Q 1894 -91 1617 61 
Q 1341 213 1159 525 
L 1159 0 
L 581 0 
L 581 4863 
L 1159 4863 
L 1159 2969 
z
" transform="scale(0.015625)"/>
      <path id="DejaVuSans-32" d="M 1228 531 
L 3431 531 
L 3431 0 
L 469 0 
L 469 531 
Q 828 903 1448 1529 
Q 2069 2156 2228 2338 
Q 2531 2678 2651 2914 
Q 2772 3150 2772 3378 
Q 2772 3750 2511 3984 
Q 2250 4219 1831 4219 
Q 1534 4219 1204 4116 
Q 875 4013 500 3803 
L 500 4441 
Q 881 4594 1212 4672 
Q 1544 4750 1819 4750 
Q 2544 4750 2975 4387 
Q 3406 4025 3406 3419 
Q 3406 3131 3298 2873 
Q 3191 2616 2906 2266 
Q 2828 2175 2409 1742 
Q 1991 1309 1228 531 
z
" transform="scale(0.015625)"/>
     </defs>
     <use xlink:href="#DejaVuSans-4a"/>
     <use xlink:href="#DejaVuSans-6f" transform="translate(29.492188 0)"/>
     <use xlink:href="#DejaVuSans-62" transform="translate(90.673828 0)"/>
     <use xlink:href="#DejaVuSans-20" transform="translate(154.150391 0)"/>
     <use xlink:href="#DejaVuSans-2d" transform="translate(185.9375 0)"/>
     <use xlink:href="#DejaVuSans-20" transform="translate(222.021484 0)"/>
     <use xlink:href="#DejaVuSans-43" transform="translate(253.808594 0)"/>
     <use xlink:href="#DejaVuSans-6f" transform="translate(323.632812 0)"/>
     <use xlink:href="#DejaVuSans-75" transform="translate(384.814453 0)"/>
     <use xlink:href="#DejaVuSans-6e" transform="translate(448.193359 0)"/>
     <use xlink:href="#DejaVuSans-74" transform="translate(511.572266 0)"/>
     <use xlink:href="#DejaVuSans-3a" transform="translate(550.78125 0)"/>
     <use xlink:href="#DejaVuSans-32" transform="translate(584.472656 0)"/>
    </g>
   </g>
   <g id="patch_8">
    <path d="M 262.649455 196.282128 
L 198.925732 196.282128 
L 193.448731 172.285829 
" style="fill: none; stroke: #ffffff; stroke-linecap: round"/>
   </g>
   <g id="text_4">
    <g id="patch_9">
     <path d="M 268.013103 204.121191 
L 336.120916 204.121191 
Q 339.120916 204.121191 339.120916 201.121191 
L 339.120916 191.443066 
Q 339.120916 188.443066 336.120916 188.443066 
L 268.013103 188.443066 
Q 265.013103 188.443066 265.013103 191.443066 
L 265.013103 201.121191 
Q 265.013103 204.121191 268.013103 204.121191 
z
" style="fill: #ffffff; stroke: #000000; stroke-width: 0.72; stroke-linejoin: miter"/>
    </g>
    <!-- Phd - Count:1 -->
    <g transform="translate(268.013103 199.041503) scale(0.1 -0.1)">
     <defs>
      <path id="DejaVuSans-50" d="M 1259 4147 
L 1259 2394 
L 2053 2394 
Q 2494 2394 2734 2622 
Q 2975 2850 2975 3272 
Q 2975 3691 2734 3919 
Q 2494 4147 2053 4147 
L 1259 4147 
z
M 628 4666 
L 2053 4666 
Q 2838 4666 3239 4311 
Q 3641 3956 3641 3272 
Q 3641 2581 3239 2228 
Q 2838 1875 2053 1875 
L 1259 1875 
L 1259 0 
L 628 0 
L 628 4666 
z
" transform="scale(0.015625)"/>
      <path id="DejaVuSans-64" d="M 2906 2969 
L 2906 4863 
L 3481 4863 
L 3481 0 
L 2906 0 
L 2906 525 
Q 2725 213 2448 61 
Q 2172 -91 1784 -91 
Q 1150 -91 751 415 
Q 353 922 353 1747 
Q 353 2572 751 3078 
Q 1150 3584 1784 3584 
Q 2172 3584 2448 3432 
Q 2725 3281 2906 2969 
z
M 947 1747 
Q 947 1113 1208 752 
Q 1469 391 1925 391 
Q 2381 391 2643 752 
Q 2906 1113 2906 1747 
Q 2906 2381 2643 2742 
Q 2381 3103 1925 3103 
Q 1469 3103 1208 2742 
Q 947 2381 947 1747 
z
" transform="scale(0.015625)"/>
     </defs>
     <use xlink:href="#DejaVuSans-50"/>
     <use xlink:href="#DejaVuSans-68" transform="translate(60.302734 0)"/>
     <use xlink:href="#DejaVuSans-64" transform="translate(123.681641 0)"/>
     <use xlink:href="#DejaVuSans-20" transform="translate(187.158203 0)"/>
     <use xlink:href="#DejaVuSans-2d" transform="translate(218.945312 0)"/>
     <use xlink:href="#DejaVuSans-20" transform="translate(255.029297 0)"/>
     <use xlink:href="#DejaVuSans-43" transform="translate(286.816406 0)"/>
     <use xlink:href="#DejaVuSans-6f" transform="translate(356.640625 0)"/>
     <use xlink:href="#DejaVuSans-75" transform="translate(417.822266 0)"/>
     <use xlink:href="#DejaVuSans-6e" transform="translate(481.201172 0)"/>
     <use xlink:href="#DejaVuSans-74" transform="translate(544.580078 0)"/>
     <use xlink:href="#DejaVuSans-3a" transform="translate(583.789062 0)"/>
     <use xlink:href="#DejaVuSans-31" transform="translate(617.480469 0)"/>
    </g>
   </g>
   <g id="patch_10">
    <path d="M 262.655639 145.889711 
L 262.115811 145.889711 
L 239.939902 135.210352 
" style="fill: none; stroke: #ffffff; stroke-linecap: round"/>
   </g>
   <g id="text_5">
    <g id="patch_11">
     <path d="M 268.013103 153.728773 
L 351.614666 153.728773 
Q 354.614666 153.728773 354.614666 150.728773 
L 354.614666 141.050648 
Q 354.614666 138.050648 351.614666 138.050648 
L 268.013103 138.050648 
Q 265.013103 138.050648 265.013103 141.050648 
L 265.013103 150.728773 
Q 265.013103 153.728773 268.013103 153.728773 
z
" style="fill: #ffffff; stroke: #000000; stroke-width: 0.72; stroke-linejoin: miter"/>
    </g>
    <!-- Project - Count:2 -->
    <g transform="translate(268.013103 148.649086) scale(0.1 -0.1)">
     <defs>
      <path id="DejaVuSans-6a" d="M 603 3500 
L 1178 3500 
L 1178 -63 
Q 1178 -731 923 -1031 
Q 669 -1331 103 -1331 
L -116 -1331 
L -116 -844 
L 38 -844 
Q 366 -844 484 -692 
Q 603 -541 603 -63 
L 603 3500 
z
M 603 4863 
L 1178 4863 
L 1178 4134 
L 603 4134 
L 603 4863 
z
" transform="scale(0.015625)"/>
      <path id="DejaVuSans-63" d="M 3122 3366 
L 3122 2828 
Q 2878 2963 2633 3030 
Q 2388 3097 2138 3097 
Q 1578 3097 1268 2742 
Q 959 2388 959 1747 
Q 959 1106 1268 751 
Q 1578 397 2138 397 
Q 2388 397 2633 464 
Q 2878 531 3122 666 
L 3122 134 
Q 2881 22 2623 -34 
Q 2366 -91 2075 -91 
Q 1284 -91 818 406 
Q 353 903 353 1747 
Q 353 2603 823 3093 
Q 1294 3584 2113 3584 
Q 2378 3584 2631 3529 
Q 2884 3475 3122 3366 
z
" transform="scale(0.015625)"/>
     </defs>
     <use xlink:href="#DejaVuSans-50"/>
     <use xlink:href="#DejaVuSans-72" transform="translate(58.552734 0)"/>
     <use xlink:href="#DejaVuSans-6f" transform="translate(97.416016 0)"/>
     <use xlink:href="#DejaVuSans-6a" transform="translate(158.597656 0)"/>
     <use xlink:href="#DejaVuSans-65" transform="translate(186.380859 0)"/>
     <use xlink:href="#DejaVuSans-63" transform="translate(247.904297 0)"/>
     <use xlink:href="#DejaVuSans-74" transform="translate(302.884766 0)"/>
     <use xlink:href="#DejaVuSans-20" transform="translate(342.09375 0)"/>
     <use xlink:href="#DejaVuSans-2d" transform="translate(373.880859 0)"/>
     <use xlink:href="#DejaVuSans-20" transform="translate(409.964844 0)"/>
     <use xlink:href="#DejaVuSans-43" transform="translate(441.751953 0)"/>
     <use xlink:href="#DejaVuSans-6f" transform="translate(511.576172 0)"/>
     <use xlink:href="#DejaVuSans-75" transform="translate(572.757812 0)"/>
     <use xlink:href="#DejaVuSans-6e" transform="translate(636.136719 0)"/>
     <use xlink:href="#DejaVuSans-74" transform="translate(699.515625 0)"/>
     <use xlink:href="#DejaVuSans-3a" transform="translate(738.724609 0)"/>
     <use xlink:href="#DejaVuSans-32" transform="translate(772.416016 0)"/>
    </g>
   </g>
   <g id="patch_12">
    <path d="M 244.728302 105.478125 
C 244.728302 95.483984 242.476253 85.617116 238.139958 76.612706 
C 233.803663 67.608297 227.493563 59.695683 219.679829 53.464439 
C 211.866095 47.233194 202.747737 42.842025 193.004171 40.61812 
C 183.260604 38.394215 173.139991 38.394216 163.396424 40.618122 
L 170.798363 73.048123 
C 175.670146 71.93617 180.730453 71.93617 185.602236 73.048123 
C 190.47402 74.160075 195.033198 76.35566 198.940065 79.471282 
C 202.846932 82.586904 206.001982 86.543211 208.17013 91.045416 
C 210.338277 95.547621 211.464302 100.481055 211.464302 105.478125 
z
" style="fill: #dadaeb"/>
   </g>
   <g id="patch_13">
    <path d="M 163.396428 40.618122 
C 153.65286 42.842028 144.534506 47.233193 136.720772 53.464439 
C 128.907039 59.695685 122.596937 67.608307 118.260642 76.612716 
C 113.924347 85.617126 111.672302 95.48399 111.672302 105.478131 
C 111.672302 115.472272 113.924351 125.339134 118.260646 134.343544 
L 148.230474 119.910834 
C 146.062326 115.40863 144.936302 110.475198 144.936302 105.478128 
C 144.936302 100.481057 146.062324 95.547625 148.230472 91.045421 
C 150.398619 86.543216 153.55367 82.586905 157.460537 79.471282 
C 161.367404 76.355659 165.926581 74.160077 170.798365 73.048123 
z
" style="fill: #636363"/>
   </g>
   <g id="patch_14">
    <path d="M 118.260646 134.343544 
C 122.596941 143.347951 128.907023 151.260553 136.720757 157.491799 
C 144.53449 163.723046 153.652858 168.114222 163.396424 170.338128 
L 170.798363 137.908127 
C 165.92658 136.796173 161.367396 134.600585 157.460529 131.484962 
C 153.553662 128.369339 150.398621 124.413038 148.230474 119.910834 
z
" style="fill: #969696"/>
   </g>
   <g id="patch_15">
    <path d="M 163.396424 170.338128 
C 173.139995 172.562039 183.26061 172.562039 193.004181 170.338128 
C 202.747751 168.114222 211.866113 163.72305 219.679847 157.491799 
L 198.940074 131.484962 
C 195.033207 134.600587 190.474026 136.796173 185.602241 137.908127 
C 180.730456 139.020082 175.670148 139.020082 170.798363 137.908127 
z
" style="fill: #bdbdbd"/>
   </g>
   <g id="patch_16">
    <path d="M 219.679847 157.491799 
C 227.49358 151.260553 233.803682 143.347927 238.139973 134.343514 
C 242.476264 125.339102 244.728302 115.472253 244.728302 105.478113 
L 211.464302 105.478119 
C 211.464302 110.475189 210.338283 115.408614 208.170137 119.910819 
C 206.001992 124.413026 202.846941 128.369339 198.940074 131.484962 
z
" style="fill: #dadaeb"/>
   </g>
   <g id="matplotlib.axis_1"/>
   <g id="matplotlib.axis_2"/>
   <g id="text_6">
    <!-- 29% -->
    <g transform="translate(203.088017 77.029287) scale(0.1 -0.1)">
     <defs>
      <path id="DejaVuSans-39" d="M 703 97 
L 703 672 
Q 941 559 1184 500 
Q 1428 441 1663 441 
Q 2288 441 2617 861 
Q 2947 1281 2994 2138 
Q 2813 1869 2534 1725 
Q 2256 1581 1919 1581 
Q 1219 1581 811 2004 
Q 403 2428 403 3163 
Q 403 3881 828 4315 
Q 1253 4750 1959 4750 
Q 2769 4750 3195 4129 
Q 3622 3509 3622 2328 
Q 3622 1225 3098 567 
Q 2575 -91 1691 -91 
Q 1453 -91 1209 -44 
Q 966 3 703 97 
z
M 1959 2075 
Q 2384 2075 2632 2365 
Q 2881 2656 2881 3163 
Q 2881 3666 2632 3958 
Q 2384 4250 1959 4250 
Q 1534 4250 1286 3958 
Q 1038 3666 1038 3163 
Q 1038 2656 1286 2365 
Q 1534 2075 1959 2075 
z
" transform="scale(0.015625)"/>
      <path id="DejaVuSans-25" d="M 4653 2053 
Q 4381 2053 4226 1822 
Q 4072 1591 4072 1178 
Q 4072 772 4226 539 
Q 4381 306 4653 306 
Q 4919 306 5073 539 
Q 5228 772 5228 1178 
Q 5228 1588 5073 1820 
Q 4919 2053 4653 2053 
z
M 4653 2450 
Q 5147 2450 5437 2106 
Q 5728 1763 5728 1178 
Q 5728 594 5436 251 
Q 5144 -91 4653 -91 
Q 4153 -91 3862 251 
Q 3572 594 3572 1178 
Q 3572 1766 3864 2108 
Q 4156 2450 4653 2450 
z
M 1428 4353 
Q 1159 4353 1004 4120 
Q 850 3888 850 3481 
Q 850 3069 1003 2837 
Q 1156 2606 1428 2606 
Q 1700 2606 1854 2837 
Q 2009 3069 2009 3481 
Q 2009 3884 1853 4118 
Q 1697 4353 1428 4353 
z
M 4250 4750 
L 4750 4750 
L 1831 -91 
L 1331 -91 
L 4250 4750 
z
M 1428 4750 
Q 1922 4750 2215 4408 
Q 2509 4066 2509 3481 
Q 2509 2891 2217 2550 
Q 1925 2209 1428 2209 
Q 931 2209 642 2551 
Q 353 2894 353 3481 
Q 353 4063 643 4406 
Q 934 4750 1428 4750 
z
" transform="scale(0.015625)"/>
     </defs>
     <use xlink:href="#DejaVuSans-32"/>
     <use xlink:href="#DejaVuSans-39" transform="translate(63.623047 0)"/>
     <use xlink:href="#DejaVuSans-25" transform="translate(127.246094 0)"/>
    </g>
   </g>
   <g id="text_7">
    <!-- 29% -->
    <g transform="translate(120.009938 90.918263) scale(0.1 -0.1)">
     <use xlink:href="#DejaVuSans-32"/>
     <use xlink:href="#DejaVuSans-39" transform="translate(63.623047 0)"/>
     <use xlink:href="#DejaVuSans-25" transform="translate(127.246094 0)"/>
    </g>
   </g>
   <g id="text_8">
    <!-- 14% -->
    <g transform="translate(131.086028 139.445716) scale(0.1 -0.1)">
     <defs>
      <path id="DejaVuSans-34" d="M 2419 4116 
L 825 1625 
L 2419 1625 
L 2419 4116 
z
M 2253 4666 
L 3047 4666 
L 3047 1625 
L 3713 1625 
L 3713 1100 
L 3047 1100 
L 3047 0 
L 2419 0 
L 2419 1100 
L 313 1100 
L 313 1709 
L 2253 4666 
z
" transform="scale(0.015625)"/>
     </defs>
     <use xlink:href="#DejaVuSans-31"/>
     <use xlink:href="#DejaVuSans-34" transform="translate(63.623047 0)"/>
     <use xlink:href="#DejaVuSans-25" transform="translate(127.246094 0)"/>
    </g>
   </g>
   <g id="text_9">
    <!-- 14% -->
    <g transform="translate(187.082629 147.153502) scale(0.1 -0.1)">
     <use xlink:href="#DejaVuSans-31"/>
     <use xlink:href="#DejaVuSans-34" transform="translate(63.623047 0)"/>
     <use xlink:href="#DejaVuSans-25" transform="translate(127.246094 0)"/>
    </g>
   </g>
   <g id="text_10">
    <!-- 14% -->
    <g transform="translate(214.164104 125.556734) scale(0.1 -0.1)">
     <use xlink:href="#DejaVuSans-31"/>
     <use xlink:href="#DejaVuSans-34" transform="translate(63.623047 0)"/>
     <use xlink:href="#DejaVuSans-25" transform="translate(127.246094 0)"/>
    </g>
   </g>
   <g id="text_11">
    <g id="patch_17">
     <path d="M 115.314677 22.41375 
L 241.085927 22.41375 
Q 244.685927 22.41375 244.685927 18.81375 
L 244.685927 7.2 
Q 244.685927 3.6 241.085927 3.6 
L 115.314677 3.6 
Q 111.714677 3.6 111.714677 7.2 
L 111.714677 18.81375 
Q 111.714677 22.41375 115.314677 22.41375 
z
" style="fill: #ffffff; stroke: #000000; stroke-linejoin: miter"/>
    </g>
    <!-- Types of experiences -->
    <g transform="translate(115.314677 16.318125) scale(0.12 -0.12)">
     <defs>
      <path id="DejaVuSans-79" d="M 2059 -325 
Q 1816 -950 1584 -1140 
Q 1353 -1331 966 -1331 
L 506 -1331 
L 506 -850 
L 844 -850 
Q 1081 -850 1212 -737 
Q 1344 -625 1503 -206 
L 1606 56 
L 191 3500 
L 800 3500 
L 1894 763 
L 2988 3500 
L 3597 3500 
L 2059 -325 
z
" transform="scale(0.015625)"/>
      <path id="DejaVuSans-66" d="M 2375 4863 
L 2375 4384 
L 1825 4384 
Q 1516 4384 1395 4259 
Q 1275 4134 1275 3809 
L 1275 3500 
L 2222 3500 
L 2222 3053 
L 1275 3053 
L 1275 0 
L 697 0 
L 697 3053 
L 147 3053 
L 147 3500 
L 697 3500 
L 697 3744 
Q 697 4328 969 4595 
Q 1241 4863 1831 4863 
L 2375 4863 
z
" transform="scale(0.015625)"/>
      <path id="DejaVuSans-78" d="M 3513 3500 
L 2247 1797 
L 3578 0 
L 2900 0 
L 1881 1375 
L 863 0 
L 184 0 
L 1544 1831 
L 300 3500 
L 978 3500 
L 1906 2253 
L 2834 3500 
L 3513 3500 
z
" transform="scale(0.015625)"/>
     </defs>
     <use xlink:href="#DejaVuSans-54"/>
     <use xlink:href="#DejaVuSans-79" transform="translate(45.458984 0)"/>
     <use xlink:href="#DejaVuSans-70" transform="translate(104.638672 0)"/>
     <use xlink:href="#DejaVuSans-65" transform="translate(168.115234 0)"/>
     <use xlink:href="#DejaVuSans-73" transform="translate(229.638672 0)"/>
     <use xlink:href="#DejaVuSans-20" transform="translate(281.738281 0)"/>
     <use xlink:href="#DejaVuSans-6f" transform="translate(313.525391 0)"/>
     <use xlink:href="#DejaVuSans-66" transform="translate(374.707031 0)"/>
     <use xlink:href="#DejaVuSans-20" transform="translate(409.912109 0)"/>
     <use xlink:href="#DejaVuSans-65" transform="translate(441.699219 0)"/>
     <use xlink:href="#DejaVuSans-78" transform="translate(501.472656 0)"/>
     <use xlink:href="#DejaVuSans-70" transform="translate(560.652344 0)"/>
     <use xlink:href="#DejaVuSans-65" transform="translate(624.128906 0)"/>
     <use xlink:href="#DejaVuSans-72" transform="translate(685.652344 0)"/>
     <use xlink:href="#DejaVuSans-69" transform="translate(726.765625 0)"/>
     <use xlink:href="#DejaVuSans-65" transform="translate(754.548828 0)"/>
     <use xlink:href="#DejaVuSans-6e" transform="translate(816.072266 0)"/>
     <use xlink:href="#DejaVuSans-63" transform="translate(879.451172 0)"/>
     <use xlink:href="#DejaVuSans-65" transform="translate(934.431641 0)"/>
     <use xlink:href="#DejaVuSans-73" transform="translate(995.955078 0)"/>
    </g>
   </g>
  </g>
 </g>
</svg>
