<?xml version="1.0" encoding="utf-8" standalone="no"?>
<!DOCTYPE svg PUBLIC "-//W3C//DTD SVG 1.1//EN"
  "http://www.w3.org/Graphics/SVG/1.1/DTD/svg11.dtd">
<svg xmlns:xlink="http://www.w3.org/1999/xlink" width="637.9pt" height="392.514375pt" viewBox="0 0 637.9 392.514375" xmlns="http://www.w3.org/2000/svg" version="1.1">
 <metadata>
  <rdf:RDF xmlns:dc="http://purl.org/dc/elements/1.1/" xmlns:cc="http://creativecommons.org/ns#" xmlns:rdf="http://www.w3.org/1999/02/22-rdf-syntax-ns#">
   <cc:Work>
    <dc:type rdf:resource="http://purl.org/dc/dcmitype/StillImage"/>
    <dc:date>2025-05-03T22:07:43.112384</dc:date>
    <dc:format>image/svg+xml</dc:format>
    <dc:creator>
     <cc:Agent>
      <dc:title>Matplotlib v3.10.0, https://matplotlib.org/</dc:title>
     </cc:Agent>
    </dc:creator>
   </cc:Work>
  </rdf:RDF>
 </metadata>
 <defs>
  <style type="text/css">*{stroke-linejoin: round; stroke-linecap: butt}</style>
 </defs>
 <g id="figure_1">
  <g id="patch_1">
   <path d="M 0 392.514375 
L 637.9 392.514375 
L 637.9 0 
L 0 0 
z
"/>
  </g>
  <g id="axes_1">
   <g id="patch_2">
    <path d="M 171.575 354.958125 
L 617.975 354.958125 
L 617.975 22.318125 
L 171.575 22.318125 
z
"/>
   </g>
   <g id="PolyCollection_1">
    <path d="M 239.4278 339.838125 
L 239.4278 304.261654 
L 257.5814 304.261654 
L 257.5814 339.838125 
z
" clip-path="url(#p7ea595e69e)" style="fill: #ffffff"/>
   </g>
   <g id="PolyCollection_2">
    <path d="M 275.8838 295.367537 
L 275.8838 259.791066 
L 361.8902 259.791066 
L 361.8902 295.367537 
z
" clip-path="url(#p7ea595e69e)" style="fill: #ffffff"/>
   </g>
   <g id="PolyCollection_3">
    <path d="M 307.5782 250.896949 
L 307.5782 215.320478 
L 311.8934 215.320478 
L 311.8934 250.896949 
z
" clip-path="url(#p7ea595e69e)" style="fill: #ffffff"/>
   </g>
   <g id="PolyCollection_4">
    <path d="M 312.0422 206.42636 
L 312.0422 170.84989 
L 366.3542 170.84989 
L 366.3542 206.42636 
z
" clip-path="url(#p7ea595e69e)" style="fill: #ffffff"/>
   </g>
   <g id="PolyCollection_5">
    <path d="M 330.3446 161.955772 
L 330.3446 126.379301 
L 344.0342 126.379301 
L 344.0342 161.955772 
z
" clip-path="url(#p7ea595e69e)" style="fill: #ffffff"/>
   </g>
   <g id="PolyCollection_6">
    <path d="M 352.8134 117.485184 
L 352.8134 81.908713 
L 370.3718 81.908713 
L 370.3718 117.485184 
z
" clip-path="url(#p7ea595e69e)" style="fill: #ffffff"/>
   </g>
   <g id="PolyCollection_7">
    <path d="M 380.0438 73.014596 
L 380.0438 37.438125 
L 574.9718 37.438125 
L 574.9718 73.014596 
z
" clip-path="url(#p7ea595e69e)" style="fill: #ffffff"/>
   </g>
   <g id="matplotlib.axis_1">
    <g id="xtick_1">
     <g id="line2d_1">
      <defs>
       <path id="m2da6cf1f3f" d="M 0 0 
L 0 3.5 
" style="stroke: #ffffff; stroke-width: 0.8"/>
      </defs>
      <g>
       <use xlink:href="#m2da6cf1f3f" x="171.575" y="354.958125" style="fill: #ffffff; stroke: #ffffff; stroke-width: 0.8"/>
      </g>
     </g>
     <g id="text_1">
      <!-- 2017 -->
      <g style="fill: #ffffff" transform="translate(158.85 369.556562) scale(0.1 -0.1)">
       <defs>
        <path id="DejaVuSans-32" d="M 1228 531 
L 3431 531 
L 3431 0 
L 469 0 
L 469 531 
Q 828 903 1448 1529 
Q 2069 2156 2228 2338 
Q 2531 2678 2651 2914 
Q 2772 3150 2772 3378 
Q 2772 3750 2511 3984 
Q 2250 4219 1831 4219 
Q 1534 4219 1204 4116 
Q 875 4013 500 3803 
L 500 4441 
Q 881 4594 1212 4672 
Q 1544 4750 1819 4750 
Q 2544 4750 2975 4387 
Q 3406 4025 3406 3419 
Q 3406 3131 3298 2873 
Q 3191 2616 2906 2266 
Q 2828 2175 2409 1742 
Q 1991 1309 1228 531 
z
" transform="scale(0.015625)"/>
        <path id="DejaVuSans-30" d="M 2034 4250 
Q 1547 4250 1301 3770 
Q 1056 3291 1056 2328 
Q 1056 1369 1301 889 
Q 1547 409 2034 409 
Q 2525 409 2770 889 
Q 3016 1369 3016 2328 
Q 3016 3291 2770 3770 
Q 2525 4250 2034 4250 
z
M 2034 4750 
Q 2819 4750 3233 4129 
Q 3647 3509 3647 2328 
Q 3647 1150 3233 529 
Q 2819 -91 2034 -91 
Q 1250 -91 836 529 
Q 422 1150 422 2328 
Q 422 3509 836 4129 
Q 1250 4750 2034 4750 
z
" transform="scale(0.015625)"/>
        <path id="DejaVuSans-31" d="M 794 531 
L 1825 531 
L 1825 4091 
L 703 3866 
L 703 4441 
L 1819 4666 
L 2450 4666 
L 2450 531 
L 3481 531 
L 3481 0 
L 794 0 
L 794 531 
z
" transform="scale(0.015625)"/>
        <path id="DejaVuSans-37" d="M 525 4666 
L 3525 4666 
L 3525 4397 
L 1831 0 
L 1172 0 
L 2766 4134 
L 525 4134 
L 525 4666 
z
" transform="scale(0.015625)"/>
       </defs>
       <use xlink:href="#DejaVuSans-32"/>
       <use xlink:href="#DejaVuSans-30" transform="translate(63.623047 0)"/>
       <use xlink:href="#DejaVuSans-31" transform="translate(127.246094 0)"/>
       <use xlink:href="#DejaVuSans-37" transform="translate(190.869141 0)"/>
      </g>
     </g>
    </g>
    <g id="xtick_2">
     <g id="line2d_2">
      <g>
       <use xlink:href="#m2da6cf1f3f" x="245.975" y="354.958125" style="fill: #ffffff; stroke: #ffffff; stroke-width: 0.8"/>
      </g>
     </g>
     <g id="text_2">
      <!-- 2019 -->
      <g style="fill: #ffffff" transform="translate(233.25 369.556562) scale(0.1 -0.1)">
       <defs>
        <path id="DejaVuSans-39" d="M 703 97 
L 703 672 
Q 941 559 1184 500 
Q 1428 441 1663 441 
Q 2288 441 2617 861 
Q 2947 1281 2994 2138 
Q 2813 1869 2534 1725 
Q 2256 1581 1919 1581 
Q 1219 1581 811 2004 
Q 403 2428 403 3163 
Q 403 3881 828 4315 
Q 1253 4750 1959 4750 
Q 2769 4750 3195 4129 
Q 3622 3509 3622 2328 
Q 3622 1225 3098 567 
Q 2575 -91 1691 -91 
Q 1453 -91 1209 -44 
Q 966 3 703 97 
z
M 1959 2075 
Q 2384 2075 2632 2365 
Q 2881 2656 2881 3163 
Q 2881 3666 2632 3958 
Q 2384 4250 1959 4250 
Q 1534 4250 1286 3958 
Q 1038 3666 1038 3163 
Q 1038 2656 1286 2365 
Q 1534 2075 1959 2075 
z
" transform="scale(0.015625)"/>
       </defs>
       <use xlink:href="#DejaVuSans-32"/>
       <use xlink:href="#DejaVuSans-30" transform="translate(63.623047 0)"/>
       <use xlink:href="#DejaVuSans-31" transform="translate(127.246094 0)"/>
       <use xlink:href="#DejaVuSans-39" transform="translate(190.869141 0)"/>
      </g>
     </g>
    </g>
    <g id="xtick_3">
     <g id="line2d_3">
      <g>
       <use xlink:href="#m2da6cf1f3f" x="320.375" y="354.958125" style="fill: #ffffff; stroke: #ffffff; stroke-width: 0.8"/>
      </g>
     </g>
     <g id="text_3">
      <!-- 2020 -->
      <g style="fill: #ffffff" transform="translate(307.65 369.556562) scale(0.1 -0.1)">
       <use xlink:href="#DejaVuSans-32"/>
       <use xlink:href="#DejaVuSans-30" transform="translate(63.623047 0)"/>
       <use xlink:href="#DejaVuSans-32" transform="translate(127.246094 0)"/>
       <use xlink:href="#DejaVuSans-30" transform="translate(190.869141 0)"/>
      </g>
     </g>
    </g>
    <g id="xtick_4">
     <g id="line2d_4">
      <g>
       <use xlink:href="#m2da6cf1f3f" x="394.775" y="354.958125" style="fill: #ffffff; stroke: #ffffff; stroke-width: 0.8"/>
      </g>
     </g>
     <g id="text_4">
      <!-- 2022 -->
      <g style="fill: #ffffff" transform="translate(382.05 369.556562) scale(0.1 -0.1)">
       <use xlink:href="#DejaVuSans-32"/>
       <use xlink:href="#DejaVuSans-30" transform="translate(63.623047 0)"/>
       <use xlink:href="#DejaVuSans-32" transform="translate(127.246094 0)"/>
       <use xlink:href="#DejaVuSans-32" transform="translate(190.869141 0)"/>
      </g>
     </g>
    </g>
    <g id="xtick_5">
     <g id="line2d_5">
      <g>
       <use xlink:href="#m2da6cf1f3f" x="469.175" y="354.958125" style="fill: #ffffff; stroke: #ffffff; stroke-width: 0.8"/>
      </g>
     </g>
     <g id="text_5">
      <!-- 2023 -->
      <g style="fill: #ffffff" transform="translate(456.45 369.556562) scale(0.1 -0.1)">
       <defs>
        <path id="DejaVuSans-33" d="M 2597 2516 
Q 3050 2419 3304 2112 
Q 3559 1806 3559 1356 
Q 3559 666 3084 287 
Q 2609 -91 1734 -91 
Q 1441 -91 1130 -33 
Q 819 25 488 141 
L 488 750 
Q 750 597 1062 519 
Q 1375 441 1716 441 
Q 2309 441 2620 675 
Q 2931 909 2931 1356 
Q 2931 1769 2642 2001 
Q 2353 2234 1838 2234 
L 1294 2234 
L 1294 2753 
L 1863 2753 
Q 2328 2753 2575 2939 
Q 2822 3125 2822 3475 
Q 2822 3834 2567 4026 
Q 2313 4219 1838 4219 
Q 1578 4219 1281 4162 
Q 984 4106 628 3988 
L 628 4550 
Q 988 4650 1302 4700 
Q 1616 4750 1894 4750 
Q 2613 4750 3031 4423 
Q 3450 4097 3450 3541 
Q 3450 3153 3228 2886 
Q 3006 2619 2597 2516 
z
" transform="scale(0.015625)"/>
       </defs>
       <use xlink:href="#DejaVuSans-32"/>
       <use xlink:href="#DejaVuSans-30" transform="translate(63.623047 0)"/>
       <use xlink:href="#DejaVuSans-32" transform="translate(127.246094 0)"/>
       <use xlink:href="#DejaVuSans-33" transform="translate(190.869141 0)"/>
      </g>
     </g>
    </g>
    <g id="xtick_6">
     <g id="line2d_6">
      <g>
       <use xlink:href="#m2da6cf1f3f" x="543.575" y="354.958125" style="fill: #ffffff; stroke: #ffffff; stroke-width: 0.8"/>
      </g>
     </g>
     <g id="text_6">
      <!-- 2024 -->
      <g style="fill: #ffffff" transform="translate(530.85 369.556562) scale(0.1 -0.1)">
       <defs>
        <path id="DejaVuSans-34" d="M 2419 4116 
L 825 1625 
L 2419 1625 
L 2419 4116 
z
M 2253 4666 
L 3047 4666 
L 3047 1625 
L 3713 1625 
L 3713 1100 
L 3047 1100 
L 3047 0 
L 2419 0 
L 2419 1100 
L 313 1100 
L 313 1709 
L 2253 4666 
z
" transform="scale(0.015625)"/>
       </defs>
       <use xlink:href="#DejaVuSans-32"/>
       <use xlink:href="#DejaVuSans-30" transform="translate(63.623047 0)"/>
       <use xlink:href="#DejaVuSans-32" transform="translate(127.246094 0)"/>
       <use xlink:href="#DejaVuSans-34" transform="translate(190.869141 0)"/>
      </g>
     </g>
    </g>
    <g id="xtick_7">
     <g id="line2d_7">
      <g>
       <use xlink:href="#m2da6cf1f3f" x="617.975" y="354.958125" style="fill: #ffffff; stroke: #ffffff; stroke-width: 0.8"/>
      </g>
     </g>
     <g id="text_7">
      <!-- 2026 -->
      <g style="fill: #ffffff" transform="translate(605.25 369.556562) scale(0.1 -0.1)">
       <defs>
        <path id="DejaVuSans-36" d="M 2113 2584 
Q 1688 2584 1439 2293 
Q 1191 2003 1191 1497 
Q 1191 994 1439 701 
Q 1688 409 2113 409 
Q 2538 409 2786 701 
Q 3034 994 3034 1497 
Q 3034 2003 2786 2293 
Q 2538 2584 2113 2584 
z
M 3366 4563 
L 3366 3988 
Q 3128 4100 2886 4159 
Q 2644 4219 2406 4219 
Q 1781 4219 1451 3797 
Q 1122 3375 1075 2522 
Q 1259 2794 1537 2939 
Q 1816 3084 2150 3084 
Q 2853 3084 3261 2657 
Q 3669 2231 3669 1497 
Q 3669 778 3244 343 
Q 2819 -91 2113 -91 
Q 1303 -91 875 529 
Q 447 1150 447 2328 
Q 447 3434 972 4092 
Q 1497 4750 2381 4750 
Q 2619 4750 2861 4703 
Q 3103 4656 3366 4563 
z
" transform="scale(0.015625)"/>
       </defs>
       <use xlink:href="#DejaVuSans-32"/>
       <use xlink:href="#DejaVuSans-30" transform="translate(63.623047 0)"/>
       <use xlink:href="#DejaVuSans-32" transform="translate(127.246094 0)"/>
       <use xlink:href="#DejaVuSans-36" transform="translate(190.869141 0)"/>
      </g>
     </g>
    </g>
    <g id="text_8">
     <!-- Years -->
     <g style="fill: #ffffff" transform="translate(381.582812 383.234687) scale(0.1 -0.1)">
      <defs>
       <path id="DejaVuSans-59" d="M -13 4666 
L 666 4666 
L 1959 2747 
L 3244 4666 
L 3922 4666 
L 2272 2222 
L 2272 0 
L 1638 0 
L 1638 2222 
L -13 4666 
z
" transform="scale(0.015625)"/>
       <path id="DejaVuSans-65" d="M 3597 1894 
L 3597 1613 
L 953 1613 
Q 991 1019 1311 708 
Q 1631 397 2203 397 
Q 2534 397 2845 478 
Q 3156 559 3463 722 
L 3463 178 
Q 3153 47 2828 -22 
Q 2503 -91 2169 -91 
Q 1331 -91 842 396 
Q 353 884 353 1716 
Q 353 2575 817 3079 
Q 1281 3584 2069 3584 
Q 2775 3584 3186 3129 
Q 3597 2675 3597 1894 
z
M 3022 2063 
Q 3016 2534 2758 2815 
Q 2500 3097 2075 3097 
Q 1594 3097 1305 2825 
Q 1016 2553 972 2059 
L 3022 2063 
z
" transform="scale(0.015625)"/>
       <path id="DejaVuSans-61" d="M 2194 1759 
Q 1497 1759 1228 1600 
Q 959 1441 959 1056 
Q 959 750 1161 570 
Q 1363 391 1709 391 
Q 2188 391 2477 730 
Q 2766 1069 2766 1631 
L 2766 1759 
L 2194 1759 
z
M 3341 1997 
L 3341 0 
L 2766 0 
L 2766 531 
Q 2569 213 2275 61 
Q 1981 -91 1556 -91 
Q 1019 -91 701 211 
Q 384 513 384 1019 
Q 384 1609 779 1909 
Q 1175 2209 1959 2209 
L 2766 2209 
L 2766 2266 
Q 2766 2663 2505 2880 
Q 2244 3097 1772 3097 
Q 1472 3097 1187 3025 
Q 903 2953 641 2809 
L 641 3341 
Q 956 3463 1253 3523 
Q 1550 3584 1831 3584 
Q 2591 3584 2966 3190 
Q 3341 2797 3341 1997 
z
" transform="scale(0.015625)"/>
       <path id="DejaVuSans-72" d="M 2631 2963 
Q 2534 3019 2420 3045 
Q 2306 3072 2169 3072 
Q 1681 3072 1420 2755 
Q 1159 2438 1159 1844 
L 1159 0 
L 581 0 
L 581 3500 
L 1159 3500 
L 1159 2956 
Q 1341 3275 1631 3429 
Q 1922 3584 2338 3584 
Q 2397 3584 2469 3576 
Q 2541 3569 2628 3553 
L 2631 2963 
z
" transform="scale(0.015625)"/>
       <path id="DejaVuSans-73" d="M 2834 3397 
L 2834 2853 
Q 2591 2978 2328 3040 
Q 2066 3103 1784 3103 
Q 1356 3103 1142 2972 
Q 928 2841 928 2578 
Q 928 2378 1081 2264 
Q 1234 2150 1697 2047 
L 1894 2003 
Q 2506 1872 2764 1633 
Q 3022 1394 3022 966 
Q 3022 478 2636 193 
Q 2250 -91 1575 -91 
Q 1294 -91 989 -36 
Q 684 19 347 128 
L 347 722 
Q 666 556 975 473 
Q 1284 391 1588 391 
Q 1994 391 2212 530 
Q 2431 669 2431 922 
Q 2431 1156 2273 1281 
Q 2116 1406 1581 1522 
L 1381 1569 
Q 847 1681 609 1914 
Q 372 2147 372 2553 
Q 372 3047 722 3315 
Q 1072 3584 1716 3584 
Q 2034 3584 2315 3537 
Q 2597 3491 2834 3397 
z
" transform="scale(0.015625)"/>
      </defs>
      <use xlink:href="#DejaVuSans-59"/>
      <use xlink:href="#DejaVuSans-65" transform="translate(47.833984 0)"/>
      <use xlink:href="#DejaVuSans-61" transform="translate(109.357422 0)"/>
      <use xlink:href="#DejaVuSans-72" transform="translate(170.636719 0)"/>
      <use xlink:href="#DejaVuSans-73" transform="translate(211.75 0)"/>
     </g>
    </g>
   </g>
   <g id="matplotlib.axis_2">
    <g id="ytick_1">
     <g id="line2d_8">
      <defs>
       <path id="me374252ffc" d="M 0 0 
L -3.5 0 
" style="stroke: #ffffff; stroke-width: 0.8"/>
      </defs>
      <g>
       <use xlink:href="#me374252ffc" x="171.575" y="317.602831" style="fill: #ffffff; stroke: #ffffff; stroke-width: 0.8"/>
      </g>
     </g>
     <g id="text_9">
      <!-- Bachelor Thesis -->
      <g style="fill: #ffffff" transform="translate(85.615625 321.40205) scale(0.1 -0.1)">
       <defs>
        <path id="DejaVuSans-42" d="M 1259 2228 
L 1259 519 
L 2272 519 
Q 2781 519 3026 730 
Q 3272 941 3272 1375 
Q 3272 1813 3026 2020 
Q 2781 2228 2272 2228 
L 1259 2228 
z
M 1259 4147 
L 1259 2741 
L 2194 2741 
Q 2656 2741 2882 2914 
Q 3109 3088 3109 3444 
Q 3109 3797 2882 3972 
Q 2656 4147 2194 4147 
L 1259 4147 
z
M 628 4666 
L 2241 4666 
Q 2963 4666 3353 4366 
Q 3744 4066 3744 3513 
Q 3744 3084 3544 2831 
Q 3344 2578 2956 2516 
Q 3422 2416 3680 2098 
Q 3938 1781 3938 1306 
Q 3938 681 3513 340 
Q 3088 0 2303 0 
L 628 0 
L 628 4666 
z
" transform="scale(0.015625)"/>
        <path id="DejaVuSans-63" d="M 3122 3366 
L 3122 2828 
Q 2878 2963 2633 3030 
Q 2388 3097 2138 3097 
Q 1578 3097 1268 2742 
Q 959 2388 959 1747 
Q 959 1106 1268 751 
Q 1578 397 2138 397 
Q 2388 397 2633 464 
Q 2878 531 3122 666 
L 3122 134 
Q 2881 22 2623 -34 
Q 2366 -91 2075 -91 
Q 1284 -91 818 406 
Q 353 903 353 1747 
Q 353 2603 823 3093 
Q 1294 3584 2113 3584 
Q 2378 3584 2631 3529 
Q 2884 3475 3122 3366 
z
" transform="scale(0.015625)"/>
        <path id="DejaVuSans-68" d="M 3513 2113 
L 3513 0 
L 2938 0 
L 2938 2094 
Q 2938 2591 2744 2837 
Q 2550 3084 2163 3084 
Q 1697 3084 1428 2787 
Q 1159 2491 1159 1978 
L 1159 0 
L 581 0 
L 581 4863 
L 1159 4863 
L 1159 2956 
Q 1366 3272 1645 3428 
Q 1925 3584 2291 3584 
Q 2894 3584 3203 3211 
Q 3513 2838 3513 2113 
z
" transform="scale(0.015625)"/>
        <path id="DejaVuSans-6c" d="M 603 4863 
L 1178 4863 
L 1178 0 
L 603 0 
L 603 4863 
z
" transform="scale(0.015625)"/>
        <path id="DejaVuSans-6f" d="M 1959 3097 
Q 1497 3097 1228 2736 
Q 959 2375 959 1747 
Q 959 1119 1226 758 
Q 1494 397 1959 397 
Q 2419 397 2687 759 
Q 2956 1122 2956 1747 
Q 2956 2369 2687 2733 
Q 2419 3097 1959 3097 
z
M 1959 3584 
Q 2709 3584 3137 3096 
Q 3566 2609 3566 1747 
Q 3566 888 3137 398 
Q 2709 -91 1959 -91 
Q 1206 -91 779 398 
Q 353 888 353 1747 
Q 353 2609 779 3096 
Q 1206 3584 1959 3584 
z
" transform="scale(0.015625)"/>
        <path id="DejaVuSans-20" transform="scale(0.015625)"/>
        <path id="DejaVuSans-54" d="M -19 4666 
L 3928 4666 
L 3928 4134 
L 2272 4134 
L 2272 0 
L 1638 0 
L 1638 4134 
L -19 4134 
L -19 4666 
z
" transform="scale(0.015625)"/>
        <path id="DejaVuSans-69" d="M 603 3500 
L 1178 3500 
L 1178 0 
L 603 0 
L 603 3500 
z
M 603 4863 
L 1178 4863 
L 1178 4134 
L 603 4134 
L 603 4863 
z
" transform="scale(0.015625)"/>
       </defs>
       <use xlink:href="#DejaVuSans-42"/>
       <use xlink:href="#DejaVuSans-61" transform="translate(68.603516 0)"/>
       <use xlink:href="#DejaVuSans-63" transform="translate(129.882812 0)"/>
       <use xlink:href="#DejaVuSans-68" transform="translate(184.863281 0)"/>
       <use xlink:href="#DejaVuSans-65" transform="translate(248.242188 0)"/>
       <use xlink:href="#DejaVuSans-6c" transform="translate(309.765625 0)"/>
       <use xlink:href="#DejaVuSans-6f" transform="translate(337.548828 0)"/>
       <use xlink:href="#DejaVuSans-72" transform="translate(398.730469 0)"/>
       <use xlink:href="#DejaVuSans-20" transform="translate(439.84375 0)"/>
       <use xlink:href="#DejaVuSans-54" transform="translate(471.630859 0)"/>
       <use xlink:href="#DejaVuSans-68" transform="translate(532.714844 0)"/>
       <use xlink:href="#DejaVuSans-65" transform="translate(596.09375 0)"/>
       <use xlink:href="#DejaVuSans-73" transform="translate(657.617188 0)"/>
       <use xlink:href="#DejaVuSans-69" transform="translate(709.716797 0)"/>
       <use xlink:href="#DejaVuSans-73" transform="translate(737.5 0)"/>
      </g>
     </g>
    </g>
    <g id="ytick_2">
     <g id="line2d_9">
      <g>
       <use xlink:href="#me374252ffc" x="171.575" y="273.132243" style="fill: #ffffff; stroke: #ffffff; stroke-width: 0.8"/>
      </g>
     </g>
     <g id="text_10">
      <!-- Full Stack Developer -->
      <g style="fill: #ffffff" transform="translate(62.003125 276.931461) scale(0.1 -0.1)">
       <defs>
        <path id="DejaVuSans-46" d="M 628 4666 
L 3309 4666 
L 3309 4134 
L 1259 4134 
L 1259 2759 
L 3109 2759 
L 3109 2228 
L 1259 2228 
L 1259 0 
L 628 0 
L 628 4666 
z
" transform="scale(0.015625)"/>
        <path id="DejaVuSans-75" d="M 544 1381 
L 544 3500 
L 1119 3500 
L 1119 1403 
Q 1119 906 1312 657 
Q 1506 409 1894 409 
Q 2359 409 2629 706 
Q 2900 1003 2900 1516 
L 2900 3500 
L 3475 3500 
L 3475 0 
L 2900 0 
L 2900 538 
Q 2691 219 2414 64 
Q 2138 -91 1772 -91 
Q 1169 -91 856 284 
Q 544 659 544 1381 
z
M 1991 3584 
L 1991 3584 
z
" transform="scale(0.015625)"/>
        <path id="DejaVuSans-53" d="M 3425 4513 
L 3425 3897 
Q 3066 4069 2747 4153 
Q 2428 4238 2131 4238 
Q 1616 4238 1336 4038 
Q 1056 3838 1056 3469 
Q 1056 3159 1242 3001 
Q 1428 2844 1947 2747 
L 2328 2669 
Q 3034 2534 3370 2195 
Q 3706 1856 3706 1288 
Q 3706 609 3251 259 
Q 2797 -91 1919 -91 
Q 1588 -91 1214 -16 
Q 841 59 441 206 
L 441 856 
Q 825 641 1194 531 
Q 1563 422 1919 422 
Q 2459 422 2753 634 
Q 3047 847 3047 1241 
Q 3047 1584 2836 1778 
Q 2625 1972 2144 2069 
L 1759 2144 
Q 1053 2284 737 2584 
Q 422 2884 422 3419 
Q 422 4038 858 4394 
Q 1294 4750 2059 4750 
Q 2388 4750 2728 4690 
Q 3069 4631 3425 4513 
z
" transform="scale(0.015625)"/>
        <path id="DejaVuSans-74" d="M 1172 4494 
L 1172 3500 
L 2356 3500 
L 2356 3053 
L 1172 3053 
L 1172 1153 
Q 1172 725 1289 603 
Q 1406 481 1766 481 
L 2356 481 
L 2356 0 
L 1766 0 
Q 1100 0 847 248 
Q 594 497 594 1153 
L 594 3053 
L 172 3053 
L 172 3500 
L 594 3500 
L 594 4494 
L 1172 4494 
z
" transform="scale(0.015625)"/>
        <path id="DejaVuSans-6b" d="M 581 4863 
L 1159 4863 
L 1159 1991 
L 2875 3500 
L 3609 3500 
L 1753 1863 
L 3688 0 
L 2938 0 
L 1159 1709 
L 1159 0 
L 581 0 
L 581 4863 
z
" transform="scale(0.015625)"/>
        <path id="DejaVuSans-44" d="M 1259 4147 
L 1259 519 
L 2022 519 
Q 2988 519 3436 956 
Q 3884 1394 3884 2338 
Q 3884 3275 3436 3711 
Q 2988 4147 2022 4147 
L 1259 4147 
z
M 628 4666 
L 1925 4666 
Q 3281 4666 3915 4102 
Q 4550 3538 4550 2338 
Q 4550 1131 3912 565 
Q 3275 0 1925 0 
L 628 0 
L 628 4666 
z
" transform="scale(0.015625)"/>
        <path id="DejaVuSans-76" d="M 191 3500 
L 800 3500 
L 1894 563 
L 2988 3500 
L 3597 3500 
L 2284 0 
L 1503 0 
L 191 3500 
z
" transform="scale(0.015625)"/>
        <path id="DejaVuSans-70" d="M 1159 525 
L 1159 -1331 
L 581 -1331 
L 581 3500 
L 1159 3500 
L 1159 2969 
Q 1341 3281 1617 3432 
Q 1894 3584 2278 3584 
Q 2916 3584 3314 3078 
Q 3713 2572 3713 1747 
Q 3713 922 3314 415 
Q 2916 -91 2278 -91 
Q 1894 -91 1617 61 
Q 1341 213 1159 525 
z
M 3116 1747 
Q 3116 2381 2855 2742 
Q 2594 3103 2138 3103 
Q 1681 3103 1420 2742 
Q 1159 2381 1159 1747 
Q 1159 1113 1420 752 
Q 1681 391 2138 391 
Q 2594 391 2855 752 
Q 3116 1113 3116 1747 
z
" transform="scale(0.015625)"/>
       </defs>
       <use xlink:href="#DejaVuSans-46"/>
       <use xlink:href="#DejaVuSans-75" transform="translate(52.019531 0)"/>
       <use xlink:href="#DejaVuSans-6c" transform="translate(115.398438 0)"/>
       <use xlink:href="#DejaVuSans-6c" transform="translate(143.181641 0)"/>
       <use xlink:href="#DejaVuSans-20" transform="translate(170.964844 0)"/>
       <use xlink:href="#DejaVuSans-53" transform="translate(202.751953 0)"/>
       <use xlink:href="#DejaVuSans-74" transform="translate(266.228516 0)"/>
       <use xlink:href="#DejaVuSans-61" transform="translate(305.4375 0)"/>
       <use xlink:href="#DejaVuSans-63" transform="translate(366.716797 0)"/>
       <use xlink:href="#DejaVuSans-6b" transform="translate(421.697266 0)"/>
       <use xlink:href="#DejaVuSans-20" transform="translate(479.607422 0)"/>
       <use xlink:href="#DejaVuSans-44" transform="translate(511.394531 0)"/>
       <use xlink:href="#DejaVuSans-65" transform="translate(588.396484 0)"/>
       <use xlink:href="#DejaVuSans-76" transform="translate(649.919922 0)"/>
       <use xlink:href="#DejaVuSans-65" transform="translate(709.099609 0)"/>
       <use xlink:href="#DejaVuSans-6c" transform="translate(770.623047 0)"/>
       <use xlink:href="#DejaVuSans-6f" transform="translate(798.40625 0)"/>
       <use xlink:href="#DejaVuSans-70" transform="translate(859.587891 0)"/>
       <use xlink:href="#DejaVuSans-65" transform="translate(923.064453 0)"/>
       <use xlink:href="#DejaVuSans-72" transform="translate(984.587891 0)"/>
      </g>
     </g>
    </g>
    <g id="ytick_3">
     <g id="line2d_10">
      <g>
       <use xlink:href="#me374252ffc" x="171.575" y="228.661654" style="fill: #ffffff; stroke: #ffffff; stroke-width: 0.8"/>
      </g>
     </g>
     <g id="text_11">
      <!-- Computer Vision Project -->
      <g style="fill: #ffffff" transform="translate(44.459375 232.460873) scale(0.1 -0.1)">
       <defs>
        <path id="DejaVuSans-43" d="M 4122 4306 
L 4122 3641 
Q 3803 3938 3442 4084 
Q 3081 4231 2675 4231 
Q 1875 4231 1450 3742 
Q 1025 3253 1025 2328 
Q 1025 1406 1450 917 
Q 1875 428 2675 428 
Q 3081 428 3442 575 
Q 3803 722 4122 1019 
L 4122 359 
Q 3791 134 3420 21 
Q 3050 -91 2638 -91 
Q 1578 -91 968 557 
Q 359 1206 359 2328 
Q 359 3453 968 4101 
Q 1578 4750 2638 4750 
Q 3056 4750 3426 4639 
Q 3797 4528 4122 4306 
z
" transform="scale(0.015625)"/>
        <path id="DejaVuSans-6d" d="M 3328 2828 
Q 3544 3216 3844 3400 
Q 4144 3584 4550 3584 
Q 5097 3584 5394 3201 
Q 5691 2819 5691 2113 
L 5691 0 
L 5113 0 
L 5113 2094 
Q 5113 2597 4934 2840 
Q 4756 3084 4391 3084 
Q 3944 3084 3684 2787 
Q 3425 2491 3425 1978 
L 3425 0 
L 2847 0 
L 2847 2094 
Q 2847 2600 2669 2842 
Q 2491 3084 2119 3084 
Q 1678 3084 1418 2786 
Q 1159 2488 1159 1978 
L 1159 0 
L 581 0 
L 581 3500 
L 1159 3500 
L 1159 2956 
Q 1356 3278 1631 3431 
Q 1906 3584 2284 3584 
Q 2666 3584 2933 3390 
Q 3200 3197 3328 2828 
z
" transform="scale(0.015625)"/>
        <path id="DejaVuSans-56" d="M 1831 0 
L 50 4666 
L 709 4666 
L 2188 738 
L 3669 4666 
L 4325 4666 
L 2547 0 
L 1831 0 
z
" transform="scale(0.015625)"/>
        <path id="DejaVuSans-6e" d="M 3513 2113 
L 3513 0 
L 2938 0 
L 2938 2094 
Q 2938 2591 2744 2837 
Q 2550 3084 2163 3084 
Q 1697 3084 1428 2787 
Q 1159 2491 1159 1978 
L 1159 0 
L 581 0 
L 581 3500 
L 1159 3500 
L 1159 2956 
Q 1366 3272 1645 3428 
Q 1925 3584 2291 3584 
Q 2894 3584 3203 3211 
Q 3513 2838 3513 2113 
z
" transform="scale(0.015625)"/>
        <path id="DejaVuSans-50" d="M 1259 4147 
L 1259 2394 
L 2053 2394 
Q 2494 2394 2734 2622 
Q 2975 2850 2975 3272 
Q 2975 3691 2734 3919 
Q 2494 4147 2053 4147 
L 1259 4147 
z
M 628 4666 
L 2053 4666 
Q 2838 4666 3239 4311 
Q 3641 3956 3641 3272 
Q 3641 2581 3239 2228 
Q 2838 1875 2053 1875 
L 1259 1875 
L 1259 0 
L 628 0 
L 628 4666 
z
" transform="scale(0.015625)"/>
        <path id="DejaVuSans-6a" d="M 603 3500 
L 1178 3500 
L 1178 -63 
Q 1178 -731 923 -1031 
Q 669 -1331 103 -1331 
L -116 -1331 
L -116 -844 
L 38 -844 
Q 366 -844 484 -692 
Q 603 -541 603 -63 
L 603 3500 
z
M 603 4863 
L 1178 4863 
L 1178 4134 
L 603 4134 
L 603 4863 
z
" transform="scale(0.015625)"/>
       </defs>
       <use xlink:href="#DejaVuSans-43"/>
       <use xlink:href="#DejaVuSans-6f" transform="translate(69.824219 0)"/>
       <use xlink:href="#DejaVuSans-6d" transform="translate(131.005859 0)"/>
       <use xlink:href="#DejaVuSans-70" transform="translate(228.417969 0)"/>
       <use xlink:href="#DejaVuSans-75" transform="translate(291.894531 0)"/>
       <use xlink:href="#DejaVuSans-74" transform="translate(355.273438 0)"/>
       <use xlink:href="#DejaVuSans-65" transform="translate(394.482422 0)"/>
       <use xlink:href="#DejaVuSans-72" transform="translate(456.005859 0)"/>
       <use xlink:href="#DejaVuSans-20" transform="translate(497.119141 0)"/>
       <use xlink:href="#DejaVuSans-56" transform="translate(528.90625 0)"/>
       <use xlink:href="#DejaVuSans-69" transform="translate(595.064453 0)"/>
       <use xlink:href="#DejaVuSans-73" transform="translate(622.847656 0)"/>
       <use xlink:href="#DejaVuSans-69" transform="translate(674.947266 0)"/>
       <use xlink:href="#DejaVuSans-6f" transform="translate(702.730469 0)"/>
       <use xlink:href="#DejaVuSans-6e" transform="translate(763.912109 0)"/>
       <use xlink:href="#DejaVuSans-20" transform="translate(827.291016 0)"/>
       <use xlink:href="#DejaVuSans-50" transform="translate(859.078125 0)"/>
       <use xlink:href="#DejaVuSans-72" transform="translate(917.630859 0)"/>
       <use xlink:href="#DejaVuSans-6f" transform="translate(956.494141 0)"/>
       <use xlink:href="#DejaVuSans-6a" transform="translate(1017.675781 0)"/>
       <use xlink:href="#DejaVuSans-65" transform="translate(1045.458984 0)"/>
       <use xlink:href="#DejaVuSans-63" transform="translate(1106.982422 0)"/>
       <use xlink:href="#DejaVuSans-74" transform="translate(1161.962891 0)"/>
      </g>
     </g>
    </g>
    <g id="ytick_4">
     <g id="line2d_11">
      <g>
       <use xlink:href="#me374252ffc" x="171.575" y="184.191066" style="fill: #ffffff; stroke: #ffffff; stroke-width: 0.8"/>
      </g>
     </g>
     <g id="text_12">
      <!-- Research Internship -->
      <g style="fill: #ffffff" transform="translate(65.225 187.990285) scale(0.1 -0.1)">
       <defs>
        <path id="DejaVuSans-52" d="M 2841 2188 
Q 3044 2119 3236 1894 
Q 3428 1669 3622 1275 
L 4263 0 
L 3584 0 
L 2988 1197 
Q 2756 1666 2539 1819 
Q 2322 1972 1947 1972 
L 1259 1972 
L 1259 0 
L 628 0 
L 628 4666 
L 2053 4666 
Q 2853 4666 3247 4331 
Q 3641 3997 3641 3322 
Q 3641 2881 3436 2590 
Q 3231 2300 2841 2188 
z
M 1259 4147 
L 1259 2491 
L 2053 2491 
Q 2509 2491 2742 2702 
Q 2975 2913 2975 3322 
Q 2975 3731 2742 3939 
Q 2509 4147 2053 4147 
L 1259 4147 
z
" transform="scale(0.015625)"/>
        <path id="DejaVuSans-49" d="M 628 4666 
L 1259 4666 
L 1259 0 
L 628 0 
L 628 4666 
z
" transform="scale(0.015625)"/>
       </defs>
       <use xlink:href="#DejaVuSans-52"/>
       <use xlink:href="#DejaVuSans-65" transform="translate(64.982422 0)"/>
       <use xlink:href="#DejaVuSans-73" transform="translate(126.505859 0)"/>
       <use xlink:href="#DejaVuSans-65" transform="translate(178.605469 0)"/>
       <use xlink:href="#DejaVuSans-61" transform="translate(240.128906 0)"/>
       <use xlink:href="#DejaVuSans-72" transform="translate(301.408203 0)"/>
       <use xlink:href="#DejaVuSans-63" transform="translate(340.271484 0)"/>
       <use xlink:href="#DejaVuSans-68" transform="translate(395.251953 0)"/>
       <use xlink:href="#DejaVuSans-20" transform="translate(458.630859 0)"/>
       <use xlink:href="#DejaVuSans-49" transform="translate(490.417969 0)"/>
       <use xlink:href="#DejaVuSans-6e" transform="translate(519.910156 0)"/>
       <use xlink:href="#DejaVuSans-74" transform="translate(583.289062 0)"/>
       <use xlink:href="#DejaVuSans-65" transform="translate(622.498047 0)"/>
       <use xlink:href="#DejaVuSans-72" transform="translate(684.021484 0)"/>
       <use xlink:href="#DejaVuSans-6e" transform="translate(723.384766 0)"/>
       <use xlink:href="#DejaVuSans-73" transform="translate(786.763672 0)"/>
       <use xlink:href="#DejaVuSans-68" transform="translate(838.863281 0)"/>
       <use xlink:href="#DejaVuSans-69" transform="translate(902.242188 0)"/>
       <use xlink:href="#DejaVuSans-70" transform="translate(930.025391 0)"/>
      </g>
     </g>
    </g>
    <g id="ytick_5">
     <g id="line2d_12">
      <g>
       <use xlink:href="#me374252ffc" x="171.575" y="139.720478" style="fill: #ffffff; stroke: #ffffff; stroke-width: 0.8"/>
      </g>
     </g>
     <g id="text_13">
      <!-- Data Visualization Internship -->
      <g style="fill: #ffffff" transform="translate(20.878125 143.519697) scale(0.1 -0.1)">
       <defs>
        <path id="DejaVuSans-7a" d="M 353 3500 
L 3084 3500 
L 3084 2975 
L 922 459 
L 3084 459 
L 3084 0 
L 275 0 
L 275 525 
L 2438 3041 
L 353 3041 
L 353 3500 
z
" transform="scale(0.015625)"/>
       </defs>
       <use xlink:href="#DejaVuSans-44"/>
       <use xlink:href="#DejaVuSans-61" transform="translate(77.001953 0)"/>
       <use xlink:href="#DejaVuSans-74" transform="translate(138.28125 0)"/>
       <use xlink:href="#DejaVuSans-61" transform="translate(177.490234 0)"/>
       <use xlink:href="#DejaVuSans-20" transform="translate(238.769531 0)"/>
       <use xlink:href="#DejaVuSans-56" transform="translate(270.556641 0)"/>
       <use xlink:href="#DejaVuSans-69" transform="translate(336.714844 0)"/>
       <use xlink:href="#DejaVuSans-73" transform="translate(364.498047 0)"/>
       <use xlink:href="#DejaVuSans-75" transform="translate(416.597656 0)"/>
       <use xlink:href="#DejaVuSans-61" transform="translate(479.976562 0)"/>
       <use xlink:href="#DejaVuSans-6c" transform="translate(541.255859 0)"/>
       <use xlink:href="#DejaVuSans-69" transform="translate(569.039062 0)"/>
       <use xlink:href="#DejaVuSans-7a" transform="translate(596.822266 0)"/>
       <use xlink:href="#DejaVuSans-61" transform="translate(649.3125 0)"/>
       <use xlink:href="#DejaVuSans-74" transform="translate(710.591797 0)"/>
       <use xlink:href="#DejaVuSans-69" transform="translate(749.800781 0)"/>
       <use xlink:href="#DejaVuSans-6f" transform="translate(777.583984 0)"/>
       <use xlink:href="#DejaVuSans-6e" transform="translate(838.765625 0)"/>
       <use xlink:href="#DejaVuSans-20" transform="translate(902.144531 0)"/>
       <use xlink:href="#DejaVuSans-49" transform="translate(933.931641 0)"/>
       <use xlink:href="#DejaVuSans-6e" transform="translate(963.423828 0)"/>
       <use xlink:href="#DejaVuSans-74" transform="translate(1026.802734 0)"/>
       <use xlink:href="#DejaVuSans-65" transform="translate(1066.011719 0)"/>
       <use xlink:href="#DejaVuSans-72" transform="translate(1127.535156 0)"/>
       <use xlink:href="#DejaVuSans-6e" transform="translate(1166.898438 0)"/>
       <use xlink:href="#DejaVuSans-73" transform="translate(1230.277344 0)"/>
       <use xlink:href="#DejaVuSans-68" transform="translate(1282.376953 0)"/>
       <use xlink:href="#DejaVuSans-69" transform="translate(1345.755859 0)"/>
       <use xlink:href="#DejaVuSans-70" transform="translate(1373.539062 0)"/>
      </g>
     </g>
    </g>
    <g id="ytick_6">
     <g id="line2d_13">
      <g>
       <use xlink:href="#me374252ffc" x="171.575" y="95.24989" style="fill: #ffffff; stroke: #ffffff; stroke-width: 0.8"/>
      </g>
     </g>
     <g id="text_14">
      <!-- Master Thesis -->
      <g style="fill: #ffffff" transform="translate(95.451563 99.049108) scale(0.1 -0.1)">
       <defs>
        <path id="DejaVuSans-4d" d="M 628 4666 
L 1569 4666 
L 2759 1491 
L 3956 4666 
L 4897 4666 
L 4897 0 
L 4281 0 
L 4281 4097 
L 3078 897 
L 2444 897 
L 1241 4097 
L 1241 0 
L 628 0 
L 628 4666 
z
" transform="scale(0.015625)"/>
       </defs>
       <use xlink:href="#DejaVuSans-4d"/>
       <use xlink:href="#DejaVuSans-61" transform="translate(86.279297 0)"/>
       <use xlink:href="#DejaVuSans-73" transform="translate(147.558594 0)"/>
       <use xlink:href="#DejaVuSans-74" transform="translate(199.658203 0)"/>
       <use xlink:href="#DejaVuSans-65" transform="translate(238.867188 0)"/>
       <use xlink:href="#DejaVuSans-72" transform="translate(300.390625 0)"/>
       <use xlink:href="#DejaVuSans-20" transform="translate(341.503906 0)"/>
       <use xlink:href="#DejaVuSans-54" transform="translate(373.291016 0)"/>
       <use xlink:href="#DejaVuSans-68" transform="translate(434.375 0)"/>
       <use xlink:href="#DejaVuSans-65" transform="translate(497.753906 0)"/>
       <use xlink:href="#DejaVuSans-73" transform="translate(559.277344 0)"/>
       <use xlink:href="#DejaVuSans-69" transform="translate(611.376953 0)"/>
       <use xlink:href="#DejaVuSans-73" transform="translate(639.160156 0)"/>
      </g>
     </g>
    </g>
    <g id="ytick_7">
     <g id="line2d_14">
      <g>
       <use xlink:href="#me374252ffc" x="171.575" y="50.779301" style="fill: #ffffff; stroke: #ffffff; stroke-width: 0.8"/>
      </g>
     </g>
     <g id="text_15">
      <!-- PhD Candidate -->
      <g style="fill: #ffffff" transform="translate(90.204688 54.57852) scale(0.1 -0.1)">
       <defs>
        <path id="DejaVuSans-64" d="M 2906 2969 
L 2906 4863 
L 3481 4863 
L 3481 0 
L 2906 0 
L 2906 525 
Q 2725 213 2448 61 
Q 2172 -91 1784 -91 
Q 1150 -91 751 415 
Q 353 922 353 1747 
Q 353 2572 751 3078 
Q 1150 3584 1784 3584 
Q 2172 3584 2448 3432 
Q 2725 3281 2906 2969 
z
M 947 1747 
Q 947 1113 1208 752 
Q 1469 391 1925 391 
Q 2381 391 2643 752 
Q 2906 1113 2906 1747 
Q 2906 2381 2643 2742 
Q 2381 3103 1925 3103 
Q 1469 3103 1208 2742 
Q 947 2381 947 1747 
z
" transform="scale(0.015625)"/>
       </defs>
       <use xlink:href="#DejaVuSans-50"/>
       <use xlink:href="#DejaVuSans-68" transform="translate(60.302734 0)"/>
       <use xlink:href="#DejaVuSans-44" transform="translate(123.681641 0)"/>
       <use xlink:href="#DejaVuSans-20" transform="translate(200.683594 0)"/>
       <use xlink:href="#DejaVuSans-43" transform="translate(232.470703 0)"/>
       <use xlink:href="#DejaVuSans-61" transform="translate(302.294922 0)"/>
       <use xlink:href="#DejaVuSans-6e" transform="translate(363.574219 0)"/>
       <use xlink:href="#DejaVuSans-64" transform="translate(426.953125 0)"/>
       <use xlink:href="#DejaVuSans-69" transform="translate(490.429688 0)"/>
       <use xlink:href="#DejaVuSans-64" transform="translate(518.212891 0)"/>
       <use xlink:href="#DejaVuSans-61" transform="translate(581.689453 0)"/>
       <use xlink:href="#DejaVuSans-74" transform="translate(642.96875 0)"/>
       <use xlink:href="#DejaVuSans-65" transform="translate(682.177734 0)"/>
      </g>
     </g>
    </g>
    <g id="text_16">
     <!-- Experiences -->
     <g style="fill: #ffffff" transform="translate(14.798438 219.127969) rotate(-90) scale(0.1 -0.1)">
      <defs>
       <path id="DejaVuSans-45" d="M 628 4666 
L 3578 4666 
L 3578 4134 
L 1259 4134 
L 1259 2753 
L 3481 2753 
L 3481 2222 
L 1259 2222 
L 1259 531 
L 3634 531 
L 3634 0 
L 628 0 
L 628 4666 
z
" transform="scale(0.015625)"/>
       <path id="DejaVuSans-78" d="M 3513 3500 
L 2247 1797 
L 3578 0 
L 2900 0 
L 1881 1375 
L 863 0 
L 184 0 
L 1544 1831 
L 300 3500 
L 978 3500 
L 1906 2253 
L 2834 3500 
L 3513 3500 
z
" transform="scale(0.015625)"/>
      </defs>
      <use xlink:href="#DejaVuSans-45"/>
      <use xlink:href="#DejaVuSans-78" transform="translate(63.183594 0)"/>
      <use xlink:href="#DejaVuSans-70" transform="translate(122.363281 0)"/>
      <use xlink:href="#DejaVuSans-65" transform="translate(185.839844 0)"/>
      <use xlink:href="#DejaVuSans-72" transform="translate(247.363281 0)"/>
      <use xlink:href="#DejaVuSans-69" transform="translate(288.476562 0)"/>
      <use xlink:href="#DejaVuSans-65" transform="translate(316.259766 0)"/>
      <use xlink:href="#DejaVuSans-6e" transform="translate(377.783203 0)"/>
      <use xlink:href="#DejaVuSans-63" transform="translate(441.162109 0)"/>
      <use xlink:href="#DejaVuSans-65" transform="translate(496.142578 0)"/>
      <use xlink:href="#DejaVuSans-73" transform="translate(557.666016 0)"/>
     </g>
    </g>
   </g>
   <g id="patch_3">
    <path d="M 171.575 354.958125 
L 171.575 22.318125 
" style="fill: none; stroke: #ffffff; stroke-width: 0.8; stroke-linejoin: miter; stroke-linecap: square"/>
   </g>
   <g id="patch_4">
    <path d="M 617.975 354.958125 
L 617.975 22.318125 
" style="fill: none; stroke: #ffffff; stroke-width: 0.8; stroke-linejoin: miter; stroke-linecap: square"/>
   </g>
   <g id="patch_5">
    <path d="M 171.575 354.958125 
L 617.975 354.958125 
" style="fill: none; stroke: #ffffff; stroke-width: 0.8; stroke-linejoin: miter; stroke-linecap: square"/>
   </g>
   <g id="patch_6">
    <path d="M 171.575 22.318125 
L 617.975 22.318125 
" style="fill: none; stroke: #ffffff; stroke-width: 0.8; stroke-linejoin: miter; stroke-linecap: square"/>
   </g>
   <g id="text_17">
    <g id="patch_7">
     <path d="M 284.435937 22.41375 
L 505.114062 22.41375 
Q 508.714062 22.41375 508.714062 18.81375 
L 508.714062 7.2 
Q 508.714062 3.6 505.114062 3.6 
L 284.435937 3.6 
Q 280.835937 3.6 280.835937 7.2 
L 280.835937 18.81375 
Q 280.835937 22.41375 284.435937 22.41375 
z
" style="fill: #ffffff; stroke: #000000; stroke-linejoin: miter"/>
    </g>
    <!-- Candidate's experiences across time -->
    <g transform="translate(284.435937 16.318125) scale(0.12 -0.12)">
     <defs>
      <path id="DejaVuSans-27" d="M 1147 4666 
L 1147 2931 
L 616 2931 
L 616 4666 
L 1147 4666 
z
" transform="scale(0.015625)"/>
     </defs>
     <use xlink:href="#DejaVuSans-43"/>
     <use xlink:href="#DejaVuSans-61" transform="translate(69.824219 0)"/>
     <use xlink:href="#DejaVuSans-6e" transform="translate(131.103516 0)"/>
     <use xlink:href="#DejaVuSans-64" transform="translate(194.482422 0)"/>
     <use xlink:href="#DejaVuSans-69" transform="translate(257.958984 0)"/>
     <use xlink:href="#DejaVuSans-64" transform="translate(285.742188 0)"/>
     <use xlink:href="#DejaVuSans-61" transform="translate(349.21875 0)"/>
     <use xlink:href="#DejaVuSans-74" transform="translate(410.498047 0)"/>
     <use xlink:href="#DejaVuSans-65" transform="translate(449.707031 0)"/>
     <use xlink:href="#DejaVuSans-27" transform="translate(511.230469 0)"/>
     <use xlink:href="#DejaVuSans-73" transform="translate(538.720703 0)"/>
     <use xlink:href="#DejaVuSans-20" transform="translate(590.820312 0)"/>
     <use xlink:href="#DejaVuSans-65" transform="translate(622.607422 0)"/>
     <use xlink:href="#DejaVuSans-78" transform="translate(682.380859 0)"/>
     <use xlink:href="#DejaVuSans-70" transform="translate(741.560547 0)"/>
     <use xlink:href="#DejaVuSans-65" transform="translate(805.037109 0)"/>
     <use xlink:href="#DejaVuSans-72" transform="translate(866.560547 0)"/>
     <use xlink:href="#DejaVuSans-69" transform="translate(907.673828 0)"/>
     <use xlink:href="#DejaVuSans-65" transform="translate(935.457031 0)"/>
     <use xlink:href="#DejaVuSans-6e" transform="translate(996.980469 0)"/>
     <use xlink:href="#DejaVuSans-63" transform="translate(1060.359375 0)"/>
     <use xlink:href="#DejaVuSans-65" transform="translate(1115.339844 0)"/>
     <use xlink:href="#DejaVuSans-73" transform="translate(1176.863281 0)"/>
     <use xlink:href="#DejaVuSans-20" transform="translate(1228.962891 0)"/>
     <use xlink:href="#DejaVuSans-61" transform="translate(1260.75 0)"/>
     <use xlink:href="#DejaVuSans-63" transform="translate(1322.029297 0)"/>
     <use xlink:href="#DejaVuSans-72" transform="translate(1377.009766 0)"/>
     <use xlink:href="#DejaVuSans-6f" transform="translate(1415.873047 0)"/>
     <use xlink:href="#DejaVuSans-73" transform="translate(1477.054688 0)"/>
     <use xlink:href="#DejaVuSans-73" transform="translate(1529.154297 0)"/>
     <use xlink:href="#DejaVuSans-20" transform="translate(1581.253906 0)"/>
     <use xlink:href="#DejaVuSans-74" transform="translate(1613.041016 0)"/>
     <use xlink:href="#DejaVuSans-69" transform="translate(1652.25 0)"/>
     <use xlink:href="#DejaVuSans-6d" transform="translate(1680.033203 0)"/>
     <use xlink:href="#DejaVuSans-65" transform="translate(1777.445312 0)"/>
    </g>
   </g>
  </g>
 </g>
 <defs>
  <clipPath id="p7ea595e69e">
   <rect x="171.575" y="22.318125" width="446.4" height="332.64"/>
  </clipPath>
 </defs>
</svg>
